<?xml version="1.0" encoding="UTF-8" standalone="no"?><!DOCTYPE svg PUBLIC "-//W3C//DTD SVG 1.1//EN" "http://www.w3.org/Graphics/SVG/1.1/DTD/svg11.dtd"><svg width="100%" height="100%" viewBox="0 0 344 221" version="1.1" xmlns="http://www.w3.org/2000/svg" xmlns:xlink="http://www.w3.org/1999/xlink" xml:space="preserve" style="fill-rule:evenodd;clip-rule:evenodd;stroke-linejoin:round;stroke-miterlimit:1.41421;"><rect id="rect3647" x="0" y="0" width="344" height="221" style="fill:#dcc6e0;"/><rect id="Artboard1" x="0" y="0" width="343.931" height="220.339" style="fill:none;"/><rect id="rect36471" x="0" y="0" width="344" height="221" style="fill:#dcc6e0;"/><rect id="Artboard11" x="0" y="0" width="343.931" height="220.339" style="fill:none;"/><rect id="rect36472" x="0" y="0" width="344" height="221" style="fill:#dcc6e0;"/><rect id="Artboard12" x="0" y="0" width="343.931" height="220.339" style="fill:none;"/><rect id="rect36473" x="0" y="0" width="344" height="221" style="fill:#dcc6e0;"/><rect id="Artboard13" x="0" y="0" width="343.931" height="220.339" style="fill:none;"/><g id="g36454"><rect id="rect36474" x="0" y="0" width="344" height="221" style="fill:#feb6be;"/><g><path d="M204.889,68.687c0.791,0.053 1.338,0.632 1.338,1.338l0,80.95c0,0.739 -0.6,1.338 -1.338,1.338l-64.221,0c-0.738,0 -1.338,-0.599 -1.338,-1.338l0,-69.141l13.148,-13.147l52.411,0Z" style="fill:#fff;"/><path d="M151.02,81.834l-11.69,0l13.145,-13.147l0,11.692c0,0.767 -0.595,1.397 -1.455,1.455Z" style="fill:#ebebeb;"/></g><rect x="145.903" y="86.847" width="31.135" height="1.708" style="fill:#ebebeb;"/><rect x="145.903" y="89.847" width="24.182" height="1.708" style="fill:#ebebeb;"/><rect x="145.903" y="92.847" width="44.005" height="1.708" style="fill:#ebebeb;"/><rect x="145.903" y="98.847" width="24" height="1.708" style="fill:#ebebeb;"/><rect x="145.903" y="101.847" width="28.112" height="1.708" style="fill:#ebebeb;"/><rect x="145.903" y="104.847" width="33.92" height="1.708" style="fill:#ebebeb;"/><rect x="145.903" y="110.847" width="39.962" height="1.708" style="fill:#ebebeb;"/><rect x="145.903" y="113.847" width="37.122" height="1.708" style="fill:#ebebeb;"/><rect x="145.903" y="116.847" width="33.92" height="1.708" style="fill:#ebebeb;"/><rect x="145.903" y="119.847" width="50.088" height="1.708" style="fill:#ebebeb;"/><rect x="145.903" y="116.847" width="33.92" height="1.708" style="fill:#ebebeb;"/><rect x="145.903" y="125.847" width="20.116" height="1.708" style="fill:#ebebeb;"/><rect x="145.903" y="128.847" width="18.381" height="1.708" style="fill:#ebebeb;"/><rect x="145.903" y="119.847" width="50.088" height="1.708" style="fill:#ebebeb;"/></g><rect id="Artboard14" x="0" y="0" width="343.931" height="220.339" style="fill:none;"/></svg>