<?xml version="1.0" encoding="UTF-8" standalone="no"?>
<!DOCTYPE svg PUBLIC "-//W3C//DTD SVG 1.1//EN" "http://www.w3.org/Graphics/SVG/1.1/DTD/svg11.dtd">
<svg width="100%" height="100%" viewBox="0 0 344 221" version="1.1" xmlns="http://www.w3.org/2000/svg" xmlns:xlink="http://www.w3.org/1999/xlink" xml:space="preserve" style="fill-rule:evenodd;clip-rule:evenodd;stroke-linecap:round;stroke-linejoin:round;stroke-miterlimit:1.5;">
    <g id="g3645">
        <rect id="rect3647" x="0" y="0" width="344" height="221" style="fill:rgb(220,198,224);"/>
    </g>
    <rect id="Artboard1" x="0" y="0" width="343.931" height="220.339" style="fill:none;"/>
    <g id="g36451">
        <rect id="rect36471" x="0" y="0" width="344" height="221" style="fill:rgb(220,198,224);"/>
    </g>
    <rect id="Artboard11" x="0" y="0" width="343.931" height="220.339" style="fill:none;"/>
    <g id="g36452">
        <rect id="rect36472" x="0" y="0" width="344" height="221" style="fill:rgb(220,198,224);"/>
    </g>
    <rect id="Artboard12" x="0" y="0" width="343.931" height="220.339" style="fill:none;"/>
    <g id="g36453">
        <rect id="rect36473" x="0" y="0" width="344" height="221" style="fill:rgb(220,198,224);"/>
    </g>
    <rect id="Artboard13" x="0" y="0" width="343.931" height="220.339" style="fill:none;"/>
    <g id="g36454">
        <g id="rect36474" transform="matrix(1,0,0,1,0.778662,0)">
            <rect x="0" y="0" width="344" height="221" style="fill:rgb(220,198,224);"/>
        </g>
        <g transform="matrix(0.36211,0,0,1.84637,109.717,-69.7352)">
            <path d="M183.625,115.181C183.625,114.051 178.947,113.133 173.186,113.133L170.814,113.133C165.053,113.133 160.375,114.051 160.375,115.181C160.375,116.311 165.053,117.228 170.814,117.228L173.186,117.228C178.947,117.228 183.625,116.311 183.625,115.181Z" style="fill:rgb(157,157,157);"/>
        </g>
        <g transform="matrix(0.865863,0,0,4.20095,23.0715,-347.171)">
            <path d="M183.625,114.517C183.625,113.753 180.618,113.133 176.913,113.133L167.087,113.133C163.382,113.133 160.375,113.753 160.375,114.517L160.375,115.845C160.375,116.608 163.382,117.228 167.087,117.228L176.913,117.228C180.618,117.228 183.625,116.608 183.625,115.845L183.625,114.517Z" style="fill:rgb(169,169,169);"/>
        </g>
        <g transform="matrix(1,0,0,1,0,19.7836)">
            <path d="M147.109,81.938C147.032,81.14 146.993,80.331 146.993,79.512C146.993,65.71 158.198,54.505 172,54.505C185.802,54.505 197.007,65.71 197.007,79.512C197.007,79.682 197.006,79.852 197.002,80.021C197.003,80.15 197.001,80.278 197.002,80.405C197.159,96.642 181.969,107.046 182,114.5C182.001,114.809 162.009,114.772 162,114.5C161.756,106.952 148.504,98.267 147.109,81.938Z" style="fill:rgb(255,220,144);"/>
        </g>
        <g transform="matrix(1,0,0,1,1.40982,19.7895)">
            <path d="M166.542,114.682C166.542,114.682 167.805,89.618 166.542,84.606C165.925,82.157 160.228,83.209 158.965,84.606C157.702,86.002 156.337,92.038 158.965,92.986C162.84,94.382 178.34,94.382 182.215,92.986C184.843,92.038 183.436,86.002 182.215,84.606C180.994,83.209 175.467,82.233 174.89,84.606C173.669,89.623 174.89,114.712 174.89,114.712" style="fill:none;stroke:rgb(220,187,116);stroke-opacity:0.529412;stroke-width:2.5px;"/>
        </g>
        <g transform="matrix(1,0,0,1,0,19.7836)">
            <path d="M183.625,115.181C183.625,114.051 182.708,113.133 181.578,113.133L162.422,113.133C161.292,113.133 160.375,114.051 160.375,115.181C160.375,116.311 161.292,117.228 162.422,117.228L181.578,117.228C182.708,117.228 183.625,116.311 183.625,115.181Z" style="fill:rgb(157,157,157);"/>
        </g>
    </g>
    <rect id="Artboard14" x="0" y="0" width="343.931" height="220.339" style="fill:none;"/>
</svg>
