<svg viewBox="0 0 344 221" xmlns="http://www.w3.org/2000/svg" fill-rule="evenodd" clip-rule="evenodd" stroke-linejoin="round" stroke-miterlimit="1.414"><path fill="none" d="M0 0h343.931v220.339H0z"/><path fill="#89c4f4" d="M0 0h344v221H0z"/><path d="M211.771 77.947a7.083 7.083 0 0 0-7.081-7.079l-65.636-.001a7.083 7.083 0 0 0-7.079 7.079v65.636a7.083 7.083 0 0 0 7.079 7.081h65.636a7.084 7.084 0 0 0 7.081-7.081V77.946v.001zm-79.795 4.509h79.795" fill="#4c6680"/><path d="M187.63 89.105a.703.703 0 0 0-.703-.703h-48.912a.703.703 0 0 0-.703.703v1.405c0 .388.315.703.703.703h48.912a.703.703 0 0 0 .703-.703v-1.405zm7.611 6.163a.703.703 0 0 0-.702-.704h-50.118a.703.703 0 0 0-.703.703v1.405c0 .388.315.703.703.703h50.118a.702.702 0 0 0 .702-.703v-1.405z" fill="#2ecc71"/><path d="M157.055 101.429a.703.703 0 0 0-.703-.703l-11.932.001a.701.701 0 0 0-.703.701v1.407c0 .388.315.702.703.702h11.932a.702.702 0 0 0 .703-.702v-1.406z" fill="#f1c40f"/><path d="M160.209 107.59a.703.703 0 0 0-.703-.703h-21.492a.703.703 0 0 0-.703.703v1.405c0 .388.315.703.703.703h21.491a.703.703 0 0 0 .703-.703v-1.405h.001zm12.999-6.161a.703.703 0 0 0-.703-.703l-11.932.001a.701.701 0 0 0-.703.701v1.407c0 .388.315.702.703.702h11.932a.702.702 0 0 0 .703-.702v-1.406zm-5.838 15.404a.703.703 0 0 0-.703-.703l-28.653.001a.702.702 0 0 0-.703.701v1.407c0 .388.315.703.703.703h28.652a.703.703 0 0 0 .703-.703v-1.406h.001zm3.426 6.162a.704.704 0 0 0-.703-.704h-25.672a.703.703 0 0 0-.703.703v1.406c0 .387.315.702.703.702h25.672a.703.703 0 0 0 .703-.702v-1.406z" fill="#2ecc71"/><path d="M200.292 122.995a.703.703 0 0 0-.702-.704h-25.672a.703.703 0 0 0-.703.703v1.406c0 .387.315.702.703.702h25.672a.703.703 0 0 0 .702-.702v-1.406z" fill="#f1c40f"/><path d="M157.055 129.156a.703.703 0 0 0-.703-.703H144.42a.703.703 0 0 0-.703.703v1.405c0 .388.315.703.703.703h11.932a.703.703 0 0 0 .703-.703v-1.405z" fill="#2ecc71"/><path d="M166.615 135.319a.704.704 0 0 0-.703-.704H144.42a.703.703 0 0 0-.703.703v1.405c0 .388.315.703.703.703h21.491a.703.703 0 0 0 .703-.703v-1.405h.001z" fill="#fff"/><path d="M160.209 141.48a.703.703 0 0 0-.703-.703h-21.492a.703.703 0 0 0-.703.703v1.406c0 .387.315.702.703.702h21.491a.703.703 0 0 0 .703-.702v-1.406h.001zm12.999-12.324a.703.703 0 0 0-.703-.703h-11.932a.703.703 0 0 0-.703.703v1.405c0 .388.315.703.703.703h11.932a.703.703 0 0 0 .703-.703v-1.405z" fill="#2ecc71"/><path d="M204.842 70.337c3.916 0 7.093 3.172 7.093 7.079v5.243h-79.957v-5.243c0-3.907 3.178-7.079 7.094-7.079h65.77z" fill="#dfdfdf"/><circle cx="139.1" cy="76.827" r="1.995" fill="#e74c3c"/><circle cx="145.959" cy="76.827" r="1.995" fill="#f1c40f"/><circle cx="152.819" cy="76.827" r="1.995" fill="#2ecc71"/><path d="M212.025 76.086a5.59 5.59 0 0 0-5.587-5.585l-68.624-.001a5.59 5.59 0 0 0-5.586 5.585v68.625a5.589 5.589 0 0 0 5.587 5.586h68.624a5.589 5.589 0 0 0 5.586-5.587V76.085zm-79.796 6.004l79.796-.001" fill="none"/></svg>