<svg viewBox="0 0 344 221" xmlns="http://www.w3.org/2000/svg" fill-rule="evenodd" clip-rule="evenodd" stroke-linejoin="round" stroke-miterlimit="1.414"><path fill="none" d="M0 0h343.931v220.339H0z"/><path fill="#a2ded0" d="M0 0h344v221H0z"/><g fill-rule="nonzero"><path d="M175.208 105.895l.42.42-.42-.42z" fill="#d1dceb"/><path d="M193.933 115.49l-14.16-14.16-.001-.001c-3.206-3.205-7.89-4.239-12.04-2.91-1.042.333-2.05.812-2.994 1.446a3.229 3.229 0 0 0 3.603 5.358 5.439 5.439 0 0 1 6.867.672l.42.42 13.74 13.74a5.398 5.398 0 0 1 1.591 3.842 5.4 5.4 0 0 1-1.591 3.843 5.399 5.399 0 0 1-3.843 1.592 5.395 5.395 0 0 1-3.841-1.592l-5.633-5.633a11.889 11.889 0 0 1-12.044-2.913l-1.05-1.05 14.161 14.161a11.81 11.81 0 0 0 8.407 3.482c3.176 0 6.162-1.236 8.408-3.482a11.813 11.813 0 0 0 3.483-8.408 11.81 11.81 0 0 0-3.483-8.407z" fill="#89c4f4"/><path d="M179.966 116.11a3.228 3.228 0 0 0-4.487-.837 5.43 5.43 0 0 1-6.907-.644l-14.16-14.16a5.44 5.44 0 0 1 0-7.685 5.398 5.398 0 0 1 3.843-1.59c1.452 0 2.816.564 3.842 1.59l5.635 5.634c4.15-1.328 8.833-.294 12.04 2.91l-13.11-13.108a11.809 11.809 0 0 0-8.407-3.483 11.812 11.812 0 0 0-8.408 3.483c-4.636 4.635-4.636 12.179 0 16.814l14.16 14.16a11.88 11.88 0 0 0 12.043 2.913 11.848 11.848 0 0 0 3.08-1.508 3.228 3.228 0 0 0 .836-4.488z" fill="#ecf1f8"/></g></svg>