<svg viewBox="0 0 344 221" xmlns="http://www.w3.org/2000/svg" fill-rule="evenodd" clip-rule="evenodd" stroke-linejoin="round" stroke-miterlimit="1.414"><path fill="none" d="M0 0h343.931v220.339H0z"/><path fill="#a2ded0" d="M-9.41-1.718h362.532v223.799H-9.41z"/><g fill-rule="nonzero"><path d="M176.302 104.324l.563.563-.563-.562v-.001z" fill="#d1dceb"/><path d="M201.415 117.192l-18.99-18.99-.002-.002c-4.299-4.298-10.58-5.684-16.147-3.903a15.847 15.847 0 0 0-4.015 1.94 4.33 4.33 0 0 0 4.832 7.186c2.879-1.936 6.751-1.556 9.209.901l.564.563 18.427 18.428a7.24 7.24 0 0 1 2.134 5.153 7.243 7.243 0 0 1-2.134 5.153 7.24 7.24 0 0 1-5.154 2.135 7.236 7.236 0 0 1-5.152-2.135l-7.554-7.554a15.945 15.945 0 0 1-16.153-3.907l-1.408-1.408 18.992 18.992a15.838 15.838 0 0 0 11.275 4.67 15.84 15.84 0 0 0 11.276-4.67 15.843 15.843 0 0 0 4.671-11.276c0-4.26-1.659-8.264-4.671-11.276z" fill="#4ec9dc"/><path d="M182.684 118.025a4.329 4.329 0 0 0-6.018-1.123 7.283 7.283 0 0 1-9.263-.864l-18.99-18.99c-2.842-2.842-2.842-7.466 0-10.307a7.24 7.24 0 0 1 5.153-2.134 7.24 7.24 0 0 1 5.153 2.134l7.557 7.556c5.567-1.781 11.847-.395 16.147 3.903l-17.582-17.581a15.838 15.838 0 0 0-11.275-4.671c-4.26 0-8.264 1.659-11.276 4.671-6.218 6.217-6.218 16.334 0 22.551l18.99 18.99a15.933 15.933 0 0 0 16.152 3.907 15.89 15.89 0 0 0 4.13-2.023 4.329 4.329 0 0 0 1.122-6.019z" fill="#d1dceb"/><g fill="#424242"><path d="M165.846 79.614a17.253 17.253 0 0 0-12.28-5.087c-4.639 0-9 1.807-12.281 5.087a17.252 17.252 0 0 0-5.078 12.28c0 4.644 1.803 9.005 5.078 12.281l36.574 36.573a17.255 17.255 0 0 0 12.28 5.087c4.639 0 9-1.807 12.28-5.087a17.249 17.249 0 0 0 5.087-12.28c0-4.639-1.806-9-5.087-12.28l-36.573-36.574zm-22.551 22.552a14.428 14.428 0 0 1-4.247-10.272c0-3.885 1.508-7.532 4.247-10.271a14.428 14.428 0 0 1 10.271-4.255c3.88 0 7.528 1.511 10.272 4.255l10.863 10.863.005.003a17.441 17.441 0 0 0-8.023.212l.002-.003-6.961-6.961a8.652 8.652 0 0 0-6.158-2.551 8.652 8.652 0 0 0-6.158 2.551c-3.395 3.395-3.395 8.92 0 12.315l18.991 18.99a8.7 8.7 0 0 0 11.07 1.031 2.888 2.888 0 0 1 2.178-.46 2.893 2.893 0 0 1 1.866 1.215 2.89 2.89 0 0 1 .46 2.178 2.887 2.887 0 0 1-1.215 1.866 14.484 14.484 0 0 1-8.195 2.539 14.439 14.439 0 0 1-10.278-4.255l-18.99-18.99zm16.61.872a5.71 5.71 0 0 0 3.666 2.435 5.714 5.714 0 0 0 4.314-.871 5.871 5.871 0 0 1 7.412.726h.001l.563.564 18.427 18.427a5.828 5.828 0 0 1 1.718 4.149 5.83 5.83 0 0 1-1.718 4.149 5.828 5.828 0 0 1-4.149 1.718c-1.567 0-3.04-.61-4.148-1.718l-6.027-6.027a17.36 17.36 0 0 0 2.401-1.375 5.715 5.715 0 0 0 2.401-3.687 5.713 5.713 0 0 0-.91-4.306 5.707 5.707 0 0 0-3.688-2.401 5.71 5.71 0 0 0-4.305.909 5.862 5.862 0 0 1-7.456-.696l-18.99-18.991a5.874 5.874 0 0 1 0-8.298 5.831 5.831 0 0 1 4.149-1.718c1.567 0 3.04.61 4.149 1.718l6.027 6.028c-.79.371-1.55.799-2.274 1.286a5.756 5.756 0 0 0-1.563 7.979zm40.505 35.701a14.426 14.426 0 0 1-10.271 4.255c-3.88 0-7.528-1.511-10.271-4.255l-10.846-10.845-.003-.002c1.153.237 2.339.36 3.545.36 1.508 0 3.004-.199 4.462-.588l-.002.004 6.958 6.957a8.65 8.65 0 0 0 6.157 2.551 8.652 8.652 0 0 0 6.158-2.551 8.647 8.647 0 0 0 2.55-6.157 8.651 8.651 0 0 0-2.55-6.158l-18.427-18.427-.563-.563c-2.937-2.937-7.567-3.389-11.007-1.076a2.89 2.89 0 0 1-2.182.441 2.912 2.912 0 0 1-1.065-5.269 14.458 14.458 0 0 1 3.655-1.766c5.213-1.668 10.85-.306 14.711 3.554l18.992 18.993a14.43 14.43 0 0 1 4.254 10.271c0 3.88-1.511 7.528-4.255 10.271z"/><path d="M163.343 118.714a1.418 1.418 0 0 0 0-2.009l-1.703-1.704a1.42 1.42 0 1 0-2.009 2.009l1.704 1.704a1.417 1.417 0 0 0 2.008 0zm-16.193-18.202a1.421 1.421 0 0 0-2.009 2.009l10.796 10.795c.278.278.641.416 1.004.416a1.422 1.422 0 0 0 1.005-2.425l-10.796-10.795z"/></g></g></svg>