<svg viewBox="0 0 344 221" xmlns="http://www.w3.org/2000/svg" fill-rule="evenodd" clip-rule="evenodd" stroke-linecap="round" stroke-linejoin="round" stroke-miterlimit="1.5"><path fill="#dcc6e0" d="M0 0h344v221H0z"/><circle cx="161.265" cy="99.765" r="23.304" fill="#e9d5ed" stroke="#555" stroke-width="5"/><path d="M144.312 99.765c0-9.357 7.596-16.953 16.953-16.953" fill="none" stroke="#fff" stroke-width="2.5"/><path d="M180.924 114.012l-5.412 5.412 7.909 7.909 5.412-5.412-7.909-7.909z" fill="#555"/><path d="M188.434 119.937a4.554 4.554 0 0 0-6.438 0l-.559.559a4.554 4.554 0 0 0 0 6.438l16.272 16.272a4.554 4.554 0 0 0 6.438 0l.559-.559a4.554 4.554 0 0 0 0-6.438l-16.272-16.272z" fill="#9e6161"/><path d="M185.215 116.718l-6.997 6.997 7.909 7.909 6.997-6.997-7.909-7.909z" fill="#f1c40f"/><path fill="none" d="M0 0h343.931v220.339H0z"/></svg>