<svg viewBox="0 0 344 221" xmlns="http://www.w3.org/2000/svg" fill-rule="evenodd" clip-rule="evenodd" stroke-linejoin="round" stroke-miterlimit="1.414"><path fill="#dcc6e0" d="M0 0h344v221H0z"/><path fill="none" d="M0 0h343.931v220.339H0z"/><path fill="#dcc6e0" d="M0 0h344v221H0z"/><path fill="none" d="M0 0h343.931v220.339H0z"/><path fill="#dcc6e0" d="M0 0h344v221H0z"/><path fill="none" d="M0 0h343.931v220.339H0z"/><path fill="#dcc6e0" d="M0 0h344v221H0z"/><path fill="none" d="M0 0h343.931v220.339H0z"/><path fill="#feb6be" d="M0 0h344v221H0z"/><path d="M204.889 68.687c.791.053 1.338.632 1.338 1.338v80.95c0 .739-.6 1.338-1.338 1.338h-64.221a1.339 1.339 0 0 1-1.338-1.338V81.834l13.148-13.147h52.411z" fill="#fff"/><path d="M151.02 81.834h-11.69l13.145-13.147v11.692c0 .767-.595 1.397-1.455 1.455zm-5.117 5.013h31.135v1.708h-31.135zm0 3h24.182v1.708h-24.182zm0 3h44.005v1.708h-44.005zm0 6h24v1.708h-24zm0 3h28.112v1.708h-28.112zm0 3h33.92v1.708h-33.92zm0 6h39.962v1.708h-39.962zm0 3h37.122v1.708h-37.122zm0 3h33.92v1.708h-33.92zm0 3h50.088v1.708h-50.088z" fill="#ebebeb"/><path fill="#ebebeb" d="M145.903 116.847h33.92v1.708h-33.92zm0 9h20.116v1.708h-20.116zm0 3h18.381v1.708h-18.381zm0-9h50.088v1.708h-50.088z"/><path fill="none" d="M0 0h343.931v220.339H0z"/></svg>