<svg viewBox="0 0 344 221" xmlns="http://www.w3.org/2000/svg" fill-rule="evenodd" clip-rule="evenodd" stroke-linejoin="round" stroke-miterlimit="1.414"><path fill="none" d="M0 0h343.931v220.339H0z"/><path fill="#f5cf87" d="M-9.41-1.718h362.532v223.799H-9.41z"/><ellipse cx="125.003" cy="50.072" rx="2.06" ry="2.12" fill="#3d495b"/><ellipse cx="164.091" cy="50.044" rx="2.384" ry="2.15" fill="#3d495b"/><path fill="#3d495b" d="M120.513 164.993h6.491v8.338h-6.491zm96.02 0h6.491v8.338h-6.491z"/><path fill="#4f5d73" d="M110.735 85.402h122.352v79.941H110.735z"/><path d="M198.972 106.563c0-5.889-4.781-10.671-10.67-10.671h-58.293c-5.889 0-10.671 4.782-10.671 10.671v37.602c0 5.889 4.782 10.67 10.671 10.67h58.293c5.889 0 10.67-4.781 10.67-10.67v-37.602z" fill="#e6e6da"/><circle cx="214.386" cy="141.438" r="6.534" fill="#76c2af"/><path d="M222.156 174.643h-5.477a1.29 1.29 0 0 1-1.289-1.289v-6.686h-87.068v6.686a1.29 1.29 0 0 1-1.289 1.289h-5.477a1.29 1.29 0 0 1-1.234-.915l-2.139-7.06h-7.548a1.29 1.29 0 0 1-1.289-1.289V85.148a1.29 1.29 0 0 1 1.289-1.289h25.934l-11.521-30.097a4.02 4.02 0 1 1 3.993-4.021c0 1.289-.61 2.438-1.557 3.174l11.845 30.944h10.463l11.665-31.126a4.011 4.011 0 0 1-1.338-2.992 4.025 4.025 0 0 1 4.02-4.021 4.026 4.026 0 0 1 4.02 4.021 4.026 4.026 0 0 1-4.33 4.008l-11.284 30.11h80.532a1.29 1.29 0 0 1 1.289 1.289v80.231a1.29 1.29 0 0 1-1.289 1.289h-7.548l-2.139 7.06a1.29 1.29 0 0 1-1.234.915zm-4.188-2.578h3.233l1.635-5.397h-4.868v5.397zm-95.456 0h3.233v-5.397h-4.869l1.636 5.397zm102.089-7.975h7.186V86.437H111.924v77.653h112.619a.56.56 0 0 1 .058 0zM164.139 48.298a1.444 1.444 0 0 0 0 2.886 1.444 1.444 0 0 0 0-2.886zm-39.119 0a1.444 1.444 0 0 0 0 2.886c.795 0 1.443-.647 1.443-1.443s-.648-1.443-1.443-1.443zm99.193 108.22h-2.137a1.289 1.289 0 1 1 0-2.578h2.137a1.29 1.29 0 0 1 0 2.578zm-8.166 0h-2.137a1.289 1.289 0 0 1 0-2.578h2.137a1.29 1.29 0 0 1 0 2.578zm-8.165 0h-2.137a1.289 1.289 0 1 1 0-2.578h2.137a1.29 1.29 0 0 1 0 2.578zm-19.912 0h-57.354c-6.84 0-12.406-5.565-12.406-12.405v-37.699c0-6.84 5.566-12.405 12.406-12.405h57.354c6.84 0 12.405 5.565 12.405 12.405v37.699c0 6.84-5.565 12.405-12.405 12.405zm-57.354-59.932c-5.419 0-9.828 4.409-9.828 9.828v37.699c0 5.419 4.409 9.827 9.828 9.827h57.354c5.419 0 9.827-4.408 9.827-9.827v-37.699c0-5.419-4.408-9.828-9.827-9.828h-57.354zm83.818 52.8c-4.323 0-7.84-3.517-7.84-7.841 0-4.322 3.517-7.84 7.84-7.84s7.84 3.517 7.84 7.84a7.8 7.8 0 0 1-1.702 4.874l-.008.009a7.83 7.83 0 0 1-6.13 2.958zm0-13.103a5.269 5.269 0 0 0-5.263 5.263 5.269 5.269 0 0 0 5.263 5.263 5.242 5.242 0 0 0 3.22-1.102l-1.109-.928a1.287 1.287 0 1 1 1.653-1.976l1.047.875a5.268 5.268 0 0 0-4.811-7.395zm8.71-9.758h-17.399a1.289 1.289 0 1 1 0-2.578h17.399a1.29 1.29 0 0 1 0 2.578zm-97.209-4.14a1.289 1.289 0 0 1-.911-2.2l19.81-19.811a1.288 1.288 0 1 1 1.823 1.822l-19.811 19.811a1.283 1.283 0 0 1-.911.378zm97.209-1.848h-17.399a1.289 1.289 0 1 1 0-2.578h17.399a1.29 1.29 0 0 1 0 2.578zm0-5.987h-17.399a1.29 1.29 0 0 1 0-2.578h17.399a1.289 1.289 0 1 1 0 2.578zm-96.986-3.021a1.289 1.289 0 0 1-.911-2.2l8.955-8.955a1.287 1.287 0 0 1 1.822 0 1.287 1.287 0 0 1 0 1.822l-8.955 8.955a1.285 1.285 0 0 1-.911.378zm96.986-2.967h-17.399a1.29 1.29 0 0 1 0-2.578h17.399a1.289 1.289 0 1 1 0 2.578zm0-5.988h-17.399a1.29 1.29 0 0 1 0-2.578h17.399a1.289 1.289 0 1 1 0 2.578zm0-5.988h-17.399a1.289 1.289 0 1 1 0-2.577h17.399a1.289 1.289 0 1 1 0 2.577z" fill="#424242" fill-rule="nonzero"/></svg>