<svg viewBox="0 0 344 221" xmlns="http://www.w3.org/2000/svg" fill-rule="evenodd" clip-rule="evenodd" stroke-linecap="round" stroke-linejoin="round" stroke-miterlimit="1.5"><path fill="none" d="M0 0h343.931v220.339H0z"/><path fill="#ffdc90" d="M0 0h344v221H0z"/><path d="M214.634 84.451a2.476 2.476 0 0 0-2.475-2.475h-80.318a2.476 2.476 0 0 0-2.475 2.475v52.098a2.476 2.476 0 0 0 2.475 2.475h80.318a2.476 2.476 0 0 0 2.475-2.475V84.451z" fill="#82bbc2"/><path d="M133.08 135.037h77.84" fill="none" stroke="#acd2d6" stroke-width="2"/><path d="M133.08 135.037h25.996" fill="none" stroke="#529ea7" stroke-width="2"/><path d="M178.592 109.713a.899.899 0 0 1 0 1.574l-9.533 5.284a.898.898 0 0 1-1.336-.787v-10.568a.898.898 0 0 1 1.336-.787l9.533 5.284z" fill="#fff"/></svg>