<svg viewBox="0 0 344 221" xmlns="http://www.w3.org/2000/svg" fill-rule="evenodd" clip-rule="evenodd" stroke-linejoin="round" stroke-miterlimit="1.414"><path fill="none" d="M0 0h343.931v220.339H0z"/><path fill="#89c4f4" d="M-9.41-1.718h362.532v223.799H-9.41z"/><path fill="#f2784b" d="M113.473 87.675h116.765v63.839H113.473z"/><circle cx="135.861" cy="128.093" r="15.238" fill="#faba45"/><circle cx="135.861" cy="128.093" r="4.364" fill="#e95b2d"/><circle cx="207.851" cy="128.093" r="15.238" fill="#faba45"/><circle cx="207.851" cy="128.093" r="4.364" fill="#e95b2d"/><path fill="#faba45" d="M158.272 126.353h27.167v25.16h-27.167zM144.14 68.849h55.432v6.116H144.14z"/><path d="M135.861 111.068c-9.388 0-17.026 7.637-17.026 17.025 0 9.388 7.638 17.026 17.026 17.026s17.025-7.638 17.025-17.026c.001-9.388-7.637-17.025-17.025-17.025zm0 30.476c-7.417 0-13.451-6.034-13.451-13.451 0-7.417 6.034-13.451 13.451-13.451 7.417 0 13.451 6.034 13.451 13.451 0 7.417-6.034 13.451-13.451 13.451z" fill="#424242" fill-rule="nonzero"/><path d="M135.861 121.942a6.158 6.158 0 0 0-6.151 6.151 6.158 6.158 0 0 0 6.151 6.152 6.159 6.159 0 0 0 6.151-6.152 6.158 6.158 0 0 0-6.151-6.151zm0 8.728a2.58 2.58 0 0 1-2.577-2.577 2.58 2.58 0 0 1 2.577-2.577 2.579 2.579 0 0 1 2.576 2.577 2.579 2.579 0 0 1-2.576 2.577zm71.99 14.449c9.388 0 17.025-7.638 17.025-17.026s-7.637-17.025-17.025-17.025c-9.388 0-17.026 7.637-17.026 17.025 0 9.388 7.638 17.026 17.026 17.026zm0-30.477c7.417 0 13.451 6.034 13.451 13.451 0 7.417-6.034 13.451-13.451 13.451-7.417 0-13.451-6.034-13.451-13.451 0-7.417 6.034-13.451 13.451-13.451z" fill="#424242" fill-rule="nonzero"/><path d="M207.851 134.244a6.158 6.158 0 0 0 6.151-6.151 6.158 6.158 0 0 0-6.151-6.151 6.158 6.158 0 0 0-6.151 6.151 6.158 6.158 0 0 0 6.151 6.151zm0-8.727a2.579 2.579 0 0 1 2.576 2.576 2.58 2.58 0 0 1-2.576 2.577 2.58 2.58 0 0 1-2.577-2.577 2.579 2.579 0 0 1 2.577-2.576z" fill="#424242" fill-rule="nonzero"/><path fill="#424242" d="M163.118 132.185h17.476v3.574h-17.476z"/><path d="M216.699 85.888v-4.647c0-7.818-6.36-14.179-14.178-14.179h-61.33c-7.818 0-14.178 6.361-14.178 14.179v4.647h-15.327v67.413h120.34V85.888h-15.327zm-18.914-15.251v2.542h-51.858v-2.542h51.858zm-67.198 10.604c0-5.847 4.757-10.604 10.604-10.604h1.162v6.116h59.006v-6.116h1.162c5.847 0 10.604 4.757 10.604 10.604v4.647h-82.538v-4.647zm-15.326 68.485V106.46h9.056v-3.574h-9.056V89.462h113.19v13.424h-99.368v3.574h27.402v43.266h-41.224zm54.808-6.347v6.347h-3.218v-6.347h3.218zm3.574 0h3.218v6.347h-3.218v-6.347zm-13.583-3.575v-11.663h23.592v11.663H160.06zm0-15.238v-18.105h23.592v18.105H160.06zm0 18.813h3.217v6.347h-3.217v-6.347zm20.375 6.347v-6.347h3.217v6.347h-3.217zm48.016 0h-41.224v-43.265h41.224v43.265z" fill="#424242" fill-rule="nonzero"/></svg>