<svg viewBox="0 0 344 221" xmlns="http://www.w3.org/2000/svg" fill-rule="evenodd" clip-rule="evenodd" stroke-linejoin="round" stroke-miterlimit="1.414"><path fill="none" d="M0 0h343.931v220.339H0z"/><clipPath id="a"><path d="M0 0h343.931v220.339H0z"/></clipPath><g clip-path="url(#a)"><path fill="#c75c5c" d="M-9.41-1.718h362.532v223.799H-9.41z"/><circle cx="171.856" cy="110.181" r="103.655" fill="#c75c5c"/><path d="M230.162 93.985h-.972L119.057 64.832c-1.62-.324-2.916-2.267-2.268-3.887.324-1.62 2.268-2.915 3.887-2.267L230.81 87.831c1.62.324 2.915 2.267 2.268 3.887-.324 1.295-1.62 2.267-2.916 2.267z" fill="#231f20" fill-opacity=".2" fill-rule="nonzero"/><path d="M120.857 51.983l110.134 29.153.782.321.673.513.517.669.326.781.112.838-.107.838-.322.783-.512.672-.67.517-.78.326-.838.113-.839-.108L119.2 58.246l-.783-.321-.672-.513-.517-.67-.326-.78-.113-.838.108-.839.321-.782.513-.672.669-.517.781-.326.838-.113.838.108z" fill="#e0e0d1"/><path d="M236.641 158.77c0 3.563-2.916 6.478-6.479 6.478H113.55c-3.563 0-6.479-2.915-6.479-6.478V93.985c0-3.563 2.916-6.478 6.479-6.478h116.612c3.563 0 6.479 2.915 6.479 6.478v64.785z" fill="#231f20" fill-opacity=".2" fill-rule="nonzero"/><path d="M236.641 152.291c0 3.563-2.916 6.479-6.479 6.479H113.55c-3.563 0-6.479-2.916-6.479-6.479V87.507c0-3.563 2.916-6.479 6.479-6.479h116.612c3.563 0 6.479 2.916 6.479 6.479v64.784z" fill="#f5cf87" fill-rule="nonzero"/><circle cx="145.942" cy="119.899" r="25.914" fill="#4f5d73"/><path d="M145.942 100.464c13.281 0 23.971 10.041 25.59 22.674 0-.972.324-2.267.324-3.239 0-14.253-11.661-25.914-25.914-25.914-14.252 0-25.914 11.661-25.914 25.914 0 .972 0 2.267.324 3.239 1.62-12.633 12.309-22.674 25.59-22.674z" fill="#231f20" fill-opacity=".2" fill-rule="nonzero"/><circle cx="186.433" cy="144.193" r="4.859" fill="#231f20" fill-opacity=".2"/><circle cx="202.629" cy="144.193" r="4.859" fill="#231f20" fill-opacity=".2"/><circle cx="218.825" cy="144.193" r="4.859" fill="#231f20" fill-opacity=".2"/><circle cx="186.433" cy="140.954" r="4.859" fill="#4f5d73"/><circle cx="202.629" cy="140.954" r="4.859" fill="#4f5d73"/><circle cx="218.825" cy="140.954" r="4.859" fill="#4f5d73"/><path d="M223.684 119.899c0 3.563-2.916 6.478-6.479 6.478h-29.153c-3.563 0-6.478-2.915-6.478-6.478v-16.196c0-3.563 2.915-6.479 6.478-6.479h29.153c3.563 0 6.479 2.916 6.479 6.479v16.196z" fill="#fff" fill-rule="nonzero"/><path d="M217.205 97.224h-29.153c-3.563 0-6.478 2.916-6.478 6.479v6.478c0-3.563 2.915-6.478 6.478-6.478h29.153c3.563 0 6.479 2.915 6.479 6.478v-6.478c0-3.563-2.916-6.479-6.479-6.479z" fill="#231f20" fill-opacity=".2" fill-rule="nonzero"/></g></svg>