<?xml version="1.0" encoding="UTF-8" standalone="no"?>
<svg
   xmlns:dc="http://purl.org/dc/elements/1.1/"
   xmlns:cc="http://creativecommons.org/ns#"
   xmlns:rdf="http://www.w3.org/1999/02/22-rdf-syntax-ns#"
   xmlns:svg="http://www.w3.org/2000/svg"
   xmlns="http://www.w3.org/2000/svg"
   xmlns:sodipodi="http://sodipodi.sourceforge.net/DTD/sodipodi-0.dtd"
   xmlns:inkscape="http://www.inkscape.org/namespaces/inkscape"
   width="100%"
   height="100%"
   viewBox="0 0 344 221"
   version="1.1"
   xml:space="preserve"
   style="fill-rule:evenodd;clip-rule:evenodd;stroke-linejoin:round;stroke-miterlimit:1.41421;"
   id="svg4136"
   inkscape:version="0.91 r13725"
   sodipodi:docname="cli.svg"><metadata
     id="metadata4175"><rdf:RDF><cc:Work
         rdf:about=""><dc:format>image/svg+xml</dc:format><dc:type
           rdf:resource="http://purl.org/dc/dcmitype/StillImage" /><dc:title></dc:title></cc:Work></rdf:RDF></metadata><defs
     id="defs4173" /><sodipodi:namedview
     pagecolor="#ffffff"
     bordercolor="#666666"
     borderopacity="1"
     objecttolerance="10"
     gridtolerance="10"
     guidetolerance="10"
     inkscape:pageopacity="0"
     inkscape:pageshadow="2"
     inkscape:window-width="1267"
     inkscape:window-height="711"
     id="namedview4171"
     showgrid="false"
     inkscape:zoom="1.4200581"
     inkscape:cx="155.10024"
     inkscape:cy="111.21854"
     inkscape:window-x="101"
     inkscape:window-y="1157"
     inkscape:window-maximized="0"
     inkscape:current-layer="g4139" /><rect
     id="Artboard1"
     x="0"
     y="0"
     width="343.931"
     height="220.339"
     style="fill:none;" /><g
     id="g4139"><rect
       x="-2.7201307"
       y="-1.5419508"
       width="362.53201"
       height="223.799"
       style="fill:#89c4f4"
       id="rect4141" /><g
       id="g4251"
       transform="translate(125.75,45.0475)" /><rect
       style="fill:#dfdfdf;fill-opacity:1;stroke:none;stroke-width:0;stroke-miterlimit:4;stroke-dasharray:none;stroke-opacity:1"
       id="rect4724"
       width="93.364151"
       height="14.938264"
       x="131.56181"
       y="64.700256" /><rect
       style="fill:#4c6680;fill-opacity:1;stroke:none;stroke-width:0;stroke-miterlimit:4;stroke-dasharray:none;stroke-opacity:1"
       id="rect4726"
       width="93.364151"
       height="75.936172"
       x="131.31284"
       y="80.136452" /><path
       id="path4707"
       style="color:#000000;font-style:normal;font-variant:normal;font-weight:normal;font-stretch:normal;font-size:medium;line-height:normal;font-family:sans-serif;text-indent:0;text-align:start;text-decoration:none;text-decoration-line:none;text-decoration-style:solid;text-decoration-color:#000000;letter-spacing:normal;word-spacing:normal;text-transform:none;direction:ltr;block-progression:tb;writing-mode:lr-tb;baseline-shift:baseline;text-anchor:start;white-space:normal;clip-rule:nonzero;display:inline;overflow:visible;visibility:visible;opacity:1;isolation:auto;mix-blend-mode:normal;color-interpolation:sRGB;color-interpolation-filters:linearRGB;solid-color:#000000;solid-opacity:1;fill:#424242;fill-opacity:1;fill-rule:evenodd;stroke:none;stroke-width:1.99999988;stroke-linecap:butt;stroke-linejoin:miter;stroke-miterlimit:4;stroke-dasharray:none;stroke-dashoffset:0;stroke-opacity:1;marker:none;color-rendering:auto;image-rendering:auto;shape-rendering:auto;text-rendering:auto;enable-background:accumulate"
       d="m 137.7134,61.35857 c -4.48892,0 -8.1665,3.677577 -8.1665,8.166496 l 0,81.664954 c 0,4.48892 3.67758,8.1665 8.1665,8.1665 l 81.66496,0 c 4.48892,0 8.16649,-3.67758 8.16649,-8.1665 l 0,-81.664954 c 0,-4.488919 -3.67757,-8.166496 -8.16649,-8.166496 z m 0,4.083248 81.66496,0 c 2.29744,0 4.08324,1.785808 4.08324,4.083248 l 0,8.166496 -89.83145,0 0,-8.166496 c 0,-2.29744 1.78581,-4.083248 4.08325,-4.083248 z m 63.29034,4.083248 c -1.12755,0 -2.04162,0.914076 -2.04162,2.041624 0,1.127548 0.91407,2.041624 2.04162,2.041624 1.12755,0 2.04163,-0.914076 2.04163,-2.041624 0,-1.127548 -0.91408,-2.041624 -2.04163,-2.041624 z m 8.1665,0 c -1.12755,0 -2.04163,0.914076 -2.04163,2.041624 0,1.127548 0.91408,2.041624 2.04163,2.041624 1.12755,0 2.04162,-0.914076 2.04162,-2.041624 0,-1.127548 -0.91407,-2.041624 -2.04162,-2.041624 z m 8.16649,0 c -1.12754,0 -2.04162,0.914076 -2.04162,2.041624 0,1.127548 0.91408,2.041624 2.04162,2.041624 1.12755,0 2.04163,-0.914076 2.04163,-2.041624 0,-1.127548 -0.91408,-2.041624 -2.04163,-2.041624 z m -83.70658,12.249744 89.83145,0 0,69.41521 c 0,2.29744 -1.7858,4.08325 -4.08324,4.08325 l -81.66496,0 c -2.29744,0 -4.08325,-1.78581 -4.08325,-4.08325 z"
       inkscape:connector-curvature="0"
       sodipodi:nodetypes="ssssssssssssccsssssssssssssssssccssssc" /><g
       id="g4825"
       transform="matrix(1.9543122,0,0,1.9543122,130.86889,61.296817)"
       style="fill:#2ecc71;fill-opacity:1"><path
         id="path4813"
         style="color:#000000;font-style:normal;font-variant:normal;font-weight:normal;font-stretch:normal;font-size:medium;line-height:normal;font-family:sans-serif;text-indent:0;text-align:start;text-decoration:none;text-decoration-line:none;text-decoration-style:solid;text-decoration-color:#000000;letter-spacing:normal;word-spacing:normal;text-transform:none;direction:ltr;block-progression:tb;writing-mode:lr-tb;baseline-shift:baseline;text-anchor:start;white-space:normal;clip-rule:nonzero;display:inline;overflow:visible;visibility:visible;opacity:1;isolation:auto;mix-blend-mode:normal;color-interpolation:sRGB;color-interpolation-filters:linearRGB;solid-color:#000000;solid-opacity:1;fill:#2ecc71;fill-opacity:1;fill-rule:evenodd;stroke:none;stroke-width:1.99999988;stroke-linecap:butt;stroke-linejoin:miter;stroke-miterlimit:4;stroke-dasharray:none;stroke-dashoffset:0;stroke-opacity:1;marker:none;color-rendering:auto;image-rendering:auto;shape-rendering:auto;text-rendering:auto;enable-background:accumulate"
         d="m 15.986328,22 c -0.08244,9.61e-4 -0.16444,0.01211 -0.24414,0.0332 -0.345796,0.09187 -0.61616,0.36149 -0.708985,0.707031 -0.09256,0.345531 0.0065,0.714188 0.259766,0.966797 L 19.585938,28 15.292969,32.292969 c -0.252577,0.252206 -0.351576,0.619917 -0.259766,0.964843 0.09187,0.345796 0.36149,0.61616 0.707031,0.708985 0.345531,0.09256 0.714188,-0.0065 0.966797,-0.259766 l 5,-5 c 0.390368,-0.39053 0.390368,-1.023532 0,-1.414062 l -5,-5 C 16.516189,22.102037 16.256259,21.996374 15.986328,22 Z M 24,32 c -0.554,0 -1,0.446 -1,1 0,0.554 0.446,1 1,1 l 8,0 c 0.554,0 1,-0.446 1,-1 0,-0.554 -0.446,-1 -1,-1 z"
         transform="translate(-1.9073486e-6,0)"
         inkscape:connector-curvature="0"
         sodipodi:nodetypes="cccccccccccccsssssss" /></g></g></svg>