<?xml version="1.0" encoding="UTF-8" standalone="no"?><!DOCTYPE svg PUBLIC "-//W3C//DTD SVG 1.1//EN" "http://www.w3.org/Graphics/SVG/1.1/DTD/svg11.dtd"><svg width="100%" height="100%" viewBox="0 0 344 221" version="1.1" xmlns="http://www.w3.org/2000/svg" xmlns:xlink="http://www.w3.org/1999/xlink" xml:space="preserve" style="fill-rule:evenodd;clip-rule:evenodd;stroke-linejoin:round;stroke-miterlimit:1.41421;"><rect id="Artboard1" x="0" y="0" width="343.931" height="220.339" style="fill:none;"/><g id="g4139"><rect id="rect4141" x="0" y="0" width="344" height="221" style="fill:#89c4f4;"/><g><g><path d="M211.771,77.947c0,-3.907 -3.173,-7.079 -7.081,-7.079l-65.636,-0.001c-3.907,0.001 -7.079,3.172 -7.079,7.079l0,65.636c0,3.908 3.172,7.081 7.079,7.081l65.636,0c3.907,0 7.081,-3.172 7.081,-7.081l0,-65.636l0,0.001Z" style="fill:#4c6680;"/><path d="M131.976,82.456l79.795,0" style="fill:#4c6680;"/></g><path d="M187.63,89.105c0,-0.388 -0.315,-0.703 -0.703,-0.703l-48.912,0c-0.388,0 -0.703,0.315 -0.703,0.703l0,1.405c0,0.388 0.315,0.703 0.703,0.703l48.912,0c0.388,0 0.703,-0.315 0.703,-0.703l0,-1.405Z" style="fill:#2ecc71;"/><path d="M195.241,95.268c0,-0.389 -0.314,-0.704 -0.702,-0.704l-50.118,0c-0.388,0 -0.703,0.315 -0.703,0.703l0,1.405c0,0.388 0.315,0.703 0.703,0.703l50.118,0c0.388,0 0.702,-0.315 0.702,-0.703l0,-1.405Z" style="fill:#2ecc71;"/><path d="M157.055,101.429c0,-0.389 -0.315,-0.703 -0.703,-0.703l-11.932,0.001c-0.388,-0.001 -0.703,0.313 -0.703,0.701l0,1.407c0,0.388 0.315,0.702 0.703,0.702l11.932,0c0.388,0 0.703,-0.314 0.703,-0.702l0,-1.406Z" style="fill:#f1c40f;"/><path d="M160.209,107.59c0,-0.388 -0.315,-0.703 -0.703,-0.703l-21.492,0c-0.388,0 -0.703,0.315 -0.703,0.703l0,1.405c0,0.388 0.315,0.703 0.703,0.703l21.491,0c0.388,0 0.703,-0.315 0.703,-0.703l0,-1.405l0.001,0Z" style="fill:#2ecc71;"/><path d="M173.208,101.429c0,-0.389 -0.315,-0.703 -0.703,-0.703l-11.932,0.001c-0.388,-0.001 -0.703,0.313 -0.703,0.701l0,1.407c0,0.388 0.315,0.702 0.703,0.702l11.932,0c0.388,0 0.703,-0.314 0.703,-0.702l0,-1.406Z" style="fill:#2ecc71;"/><path d="M167.37,116.833c0,-0.388 -0.315,-0.703 -0.703,-0.703l-28.653,0.001c-0.388,-0.001 -0.703,0.314 -0.703,0.701l0,1.407c0,0.388 0.315,0.703 0.703,0.703l28.652,0c0.388,0 0.703,-0.315 0.703,-0.703l0,-1.406l0.001,0Z" style="fill:#2ecc71;"/><path d="M170.796,122.995c0,-0.389 -0.315,-0.704 -0.703,-0.704l-25.672,0c-0.388,0 -0.703,0.315 -0.703,0.703l0,1.406c0,0.387 0.315,0.702 0.703,0.702l25.672,0c0.388,0 0.703,-0.315 0.703,-0.702l0,-1.406Z" style="fill:#2ecc71;"/><path d="M200.292,122.995c0,-0.389 -0.315,-0.704 -0.702,-0.704l-25.672,0c-0.388,0 -0.703,0.315 -0.703,0.703l0,1.406c0,0.387 0.315,0.702 0.703,0.702l25.672,0c0.387,0 0.702,-0.315 0.702,-0.702l0,-1.406Z" style="fill:#f1c40f;"/><path d="M157.055,129.156c0,-0.388 -0.315,-0.703 -0.703,-0.703l-11.932,0c-0.388,0 -0.703,0.315 -0.703,0.703l0,1.405c0,0.388 0.315,0.703 0.703,0.703l11.932,0c0.388,0 0.703,-0.315 0.703,-0.703l0,-1.405Z" style="fill:#2ecc71;"/><path d="M166.615,135.319c0,-0.389 -0.315,-0.704 -0.703,-0.704l-21.492,0c-0.388,0 -0.703,0.315 -0.703,0.703l0,1.405c0,0.388 0.315,0.703 0.703,0.703l21.491,0c0.388,0 0.703,-0.315 0.703,-0.703l0,-1.405l0.001,0Z" style="fill:#fff;"/><path d="M160.209,141.48c0,-0.388 -0.315,-0.703 -0.703,-0.703l-21.492,0c-0.388,0 -0.703,0.315 -0.703,0.703l0,1.406c0,0.387 0.315,0.702 0.703,0.702l21.491,0c0.388,0 0.703,-0.315 0.703,-0.702l0,-1.406l0.001,0Z" style="fill:#2ecc71;"/><path d="M173.208,129.156c0,-0.388 -0.315,-0.703 -0.703,-0.703l-11.932,0c-0.388,0 -0.703,0.315 -0.703,0.703l0,1.405c0,0.388 0.315,0.703 0.703,0.703l11.932,0c0.388,0 0.703,-0.315 0.703,-0.703l0,-1.405Z" style="fill:#2ecc71;"/><path d="M204.842,70.337c3.916,0 7.093,3.172 7.093,7.079l0,5.243l-79.957,0l0,-5.243c0,-3.907 3.178,-7.079 7.094,-7.079l65.77,0Z" style="fill:#dfdfdf;"/><circle cx="139.1" cy="76.827" r="1.995" style="fill:#e74c3c;"/><circle cx="145.959" cy="76.827" r="1.995" style="fill:#f1c40f;"/><circle cx="152.819" cy="76.827" r="1.995" style="fill:#2ecc71;"/><g><path d="M212.025,76.086c0,-3.082 -2.504,-5.585 -5.587,-5.585l-68.624,-0.001c-3.083,0.001 -5.586,2.504 -5.586,5.585l0,68.625c0,3.083 2.503,5.586 5.587,5.586l68.624,0c3.083,0 5.586,-2.503 5.586,-5.587l0,-68.624Z" style="fill:none;"/><path d="M132.229,82.09l79.796,-0.001" style="fill:none;"/></g></g></g></svg>