<?xml version="1.0" encoding="UTF-8" standalone="no"?><!DOCTYPE svg PUBLIC "-//W3C//DTD SVG 1.1//EN" "http://www.w3.org/Graphics/SVG/1.1/DTD/svg11.dtd"><svg width="100%" height="100%" viewBox="0 0 198 198" version="1.1" xmlns="http://www.w3.org/2000/svg" xmlns:xlink="http://www.w3.org/1999/xlink" xml:space="preserve" style="fill-rule:evenodd;clip-rule:evenodd;stroke-linejoin:round;stroke-miterlimit:1.41421;"><rect id="Artboard1" x="0" y="0" width="197.593" height="197.593" style="fill:none;"/><path d="M0,98.796c0,-54.527 44.269,-98.796 98.796,-98.796c54.528,0 98.797,44.269 98.797,98.796c0,54.528 -44.269,98.797 -98.797,98.797c-54.527,0 -98.796,-44.269 -98.796,-98.797Z" style="fill:url(#_Linear1);"/><path d="M117.696,77.662c-0.616,-0.616 -1.617,-0.616 -2.234,0l-37.8,37.8c-0.616,0.617 -0.616,1.618 0,2.234l2.234,2.235c0.617,0.616 1.618,0.616 2.235,0l37.8,-37.8c0.616,-0.617 0.616,-1.618 0,-2.235l-2.235,-2.234Z" style="fill:#fff;"/><path d="M119.931,117.696c0.616,-0.616 0.616,-1.617 0,-2.234l-37.8,-37.8c-0.617,-0.616 -1.618,-0.616 -2.235,0l-2.234,2.234c-0.616,0.617 -0.616,1.618 0,2.235l37.8,37.8c0.617,0.616 1.618,0.616 2.234,0l2.235,-2.235Z" style="fill:#fff;"/><defs><linearGradient id="_Linear1" x1="0" y1="0" x2="1" y2="0" gradientUnits="userSpaceOnUse" gradientTransform="matrix(1.09686e-14,-197.593,197.593,1.09686e-14,98.7965,197.593)"><stop offset="0%" style="stop-color:#2980b9;stop-opacity:1"/><stop offset="45%" style="stop-color:#3293d4;stop-opacity:1"/><stop offset="100%" style="stop-color:#3498db;stop-opacity:1"/></linearGradient></defs></svg>