<?xml version="1.0" encoding="UTF-8" standalone="no"?><!DOCTYPE svg PUBLIC "-//W3C//DTD SVG 1.1//EN" "http://www.w3.org/Graphics/SVG/1.1/DTD/svg11.dtd"><svg width="100%" height="100%" viewBox="0 0 198 198" version="1.1" xmlns="http://www.w3.org/2000/svg" xmlns:xlink="http://www.w3.org/1999/xlink" xml:space="preserve" style="fill-rule:evenodd;clip-rule:evenodd;stroke-linejoin:round;stroke-miterlimit:1.41421;"><rect id="Artboard1" x="0" y="0" width="197.593" height="197.593" style="fill:none;"/><path d="M0,98.796c0,-54.527 44.269,-98.796 98.796,-98.796c54.528,0 98.797,44.269 98.797,98.796c0,54.528 -44.269,98.797 -98.797,98.797c-54.527,0 -98.796,-44.269 -98.796,-98.797Z" style="fill:url(#_Linear1);"/><path d="M136.937,125.084c0,-0.872 -0.708,-1.58 -1.58,-1.58l-42.805,0c-0.871,0 -1.579,0.708 -1.579,1.58l0,3.16c0,0.872 0.708,1.58 1.579,1.58l42.805,0c0.872,0 1.58,-0.708 1.58,-1.58l0,-3.16Z" style="fill:#fff;"/><path d="M86.586,99.862c0.617,-0.617 0.617,-1.618 0,-2.234l-24.009,-24.01c-0.617,-0.616 -1.618,-0.616 -2.235,0l-2.234,2.235c-0.617,0.616 -0.617,1.617 0,2.234l24.009,24.009c0.617,0.617 1.618,0.617 2.235,0l2.234,-2.234Z" style="fill:#fff;"/><path d="M84.154,95.646c-0.616,-0.616 -1.617,-0.616 -2.234,0l-24.009,24.01c-0.617,0.616 -0.617,1.617 0,2.234l2.234,2.234c0.617,0.617 1.618,0.617 2.235,0l24.009,-24.009c0.616,-0.617 0.616,-1.618 0,-2.234l-2.235,-2.235Z" style="fill:#fff;"/><defs><linearGradient id="_Linear1" x1="0" y1="0" x2="1" y2="0" gradientUnits="userSpaceOnUse" gradientTransform="matrix(1.09686e-14,-197.593,197.593,1.09686e-14,98.7965,197.593)"><stop offset="0%" style="stop-color:#2980b9;stop-opacity:1"/><stop offset="45%" style="stop-color:#3293d4;stop-opacity:1"/><stop offset="100%" style="stop-color:#3498db;stop-opacity:1"/></linearGradient></defs></svg>