<?xml version="1.0" encoding="UTF-8" standalone="no"?><!DOCTYPE svg PUBLIC "-//W3C//DTD SVG 1.1//EN" "http://www.w3.org/Graphics/SVG/1.1/DTD/svg11.dtd"><svg width="100%" height="100%" viewBox="0 0 344 221" version="1.1" xmlns="http://www.w3.org/2000/svg" xmlns:xlink="http://www.w3.org/1999/xlink" xml:space="preserve" style="fill-rule:evenodd;clip-rule:evenodd;stroke-linejoin:round;stroke-miterlimit:1.41421;"><rect id="Artboard1" x="0" y="0" width="343.931" height="220.339" style="fill:none;"/><g><rect x="-9.41" y="-1.718" width="362.532" height="223.799" style="fill:#a2ded0;"/><g><g><path d="M176.302,104.324l0.563,0.563l-0.563,-0.562l0,-0.001l0,0Z" style="fill:#d1dceb;fill-rule:nonzero;"/><path d="M201.415,117.192l-18.99,-18.99c-0.001,-0.001 -0.001,-0.001 -0.002,-0.002c-4.299,-4.298 -10.58,-5.684 -16.147,-3.903c-1.397,0.447 -2.75,1.09 -4.015,1.94c-1.984,1.335 -2.511,4.025 -1.177,6.009c1.334,1.984 4.024,2.511 6.009,1.177c2.879,-1.936 6.751,-1.556 9.209,0.901l0.564,0.563l18.427,18.428c1.376,1.376 2.134,3.206 2.134,5.153c0,1.946 -0.758,3.776 -2.134,5.153c-1.377,1.377 -3.207,2.135 -5.154,2.135c-1.946,0 -3.776,-0.758 -5.152,-2.135l-7.554,-7.554c-1.587,0.51 -3.23,0.764 -4.869,0.765c-4.114,0 -8.2,-1.588 -11.284,-4.672l-1.408,-1.408l18.992,18.992c3.011,3.012 7.016,4.67 11.275,4.67c4.26,0 8.264,-1.658 11.276,-4.67c3.012,-3.012 4.671,-7.017 4.671,-11.276c0,-4.26 -1.659,-8.264 -4.671,-11.276Z" style="fill:#4ec9dc;fill-rule:nonzero;"/><path d="M182.684,118.025c-1.352,-1.972 -4.046,-2.475 -6.018,-1.123c-2.887,1.979 -6.783,1.616 -9.263,-0.864l-18.99,-18.99c-2.842,-2.842 -2.842,-7.466 0,-10.307c1.376,-1.376 3.206,-2.134 5.153,-2.134c1.947,0 3.777,0.758 5.153,2.134l7.557,7.556c5.567,-1.781 11.847,-0.395 16.147,3.903l-17.582,-17.581c-3.011,-3.012 -7.015,-4.671 -11.275,-4.671c-4.26,0 -8.264,1.659 -11.276,4.671c-6.218,6.217 -6.218,16.334 0,22.551l18.99,18.99c3.084,3.084 7.169,4.672 11.284,4.672c1.639,0 3.282,-0.255 4.868,-0.765c1.439,-0.462 2.831,-1.133 4.13,-2.023c1.972,-1.352 2.475,-4.047 1.122,-6.019l0,0Z" style="fill:#d1dceb;fill-rule:nonzero;"/></g><g><path d="M165.846,79.614c-3.28,-3.28 -7.641,-5.087 -12.28,-5.087c-4.639,0 -9,1.807 -12.281,5.087c-3.275,3.276 -5.078,7.637 -5.078,12.28c0,4.644 1.803,9.005 5.078,12.281l36.574,36.573c3.281,3.28 7.641,5.087 12.28,5.087c4.639,0 9,-1.807 12.28,-5.087c3.281,-3.28 5.087,-7.641 5.087,-12.28c0,-4.639 -1.806,-9 -5.087,-12.28l-36.573,-36.574l0,0Zm-22.551,22.552c-2.739,-2.739 -4.247,-6.387 -4.247,-10.272c0,-3.885 1.508,-7.532 4.247,-10.271c2.743,-2.744 6.391,-4.255 10.271,-4.255c3.88,0 7.528,1.511 10.272,4.255l10.863,10.863l0.005,0.003c-2.661,-0.554 -5.408,-0.481 -8.023,0.212l0.002,-0.003l-6.961,-6.961c-1.645,-1.645 -3.832,-2.551 -6.158,-2.551c-2.326,0 -4.513,0.906 -6.158,2.551c-3.395,3.395 -3.395,8.92 0,12.315l18.991,18.99c2.963,2.964 7.619,3.398 11.07,1.031c0.641,-0.439 1.414,-0.603 2.178,-0.46c0.764,0.143 1.426,0.574 1.866,1.215c0.439,0.641 0.603,1.415 0.46,2.178c-0.142,0.764 -0.574,1.427 -1.215,1.866c-1.156,0.793 -2.422,1.413 -3.76,1.843c-1.439,0.462 -2.93,0.696 -4.435,0.696c-3.884,0 -7.534,-1.511 -10.278,-4.255l-18.99,-18.99l0,0Zm16.61,0.872c0.857,1.275 2.159,2.14 3.666,2.435c1.507,0.295 3.04,-0.014 4.314,-0.871c2.316,-1.558 5.433,-1.252 7.412,0.726c0,0 0,0 0.001,0l0.563,0.564l18.427,18.427c1.108,1.108 1.718,2.581 1.718,4.149c0,1.567 -0.61,3.041 -1.718,4.149c-1.108,1.108 -2.581,1.718 -4.149,1.718c-1.567,0 -3.04,-0.61 -4.148,-1.718l-6.027,-6.027c0.834,-0.394 1.638,-0.852 2.401,-1.375c1.266,-0.868 2.119,-2.178 2.401,-3.687c0.282,-1.51 -0.042,-3.04 -0.91,-4.306c-0.868,-1.267 -2.178,-2.12 -3.688,-2.401c-1.51,-0.282 -3.039,0.041 -4.305,0.909c-2.324,1.593 -5.459,1.3 -7.456,-0.696l-18.99,-18.991c-2.288,-2.287 -2.288,-6.01 0,-8.298c1.109,-1.108 2.582,-1.718 4.149,-1.718c1.567,0 3.04,0.61 4.149,1.718l6.027,6.028c-0.79,0.371 -1.55,0.799 -2.274,1.286c-2.63,1.769 -3.332,5.349 -1.563,7.979l0,0Zm40.505,35.701c-2.743,2.744 -6.39,4.255 -10.271,4.255c-3.88,0 -7.528,-1.511 -10.271,-4.255l-10.846,-10.845l-0.003,-0.002c1.153,0.237 2.339,0.36 3.545,0.36c1.508,0 3.004,-0.199 4.462,-0.588l-0.002,0.004l6.958,6.957c1.645,1.645 3.831,2.551 6.157,2.551c2.326,0 4.513,-0.906 6.158,-2.551c1.645,-1.644 2.55,-3.831 2.55,-6.157c0,-2.326 -0.905,-4.513 -2.55,-6.158l-18.427,-18.427l-0.563,-0.563c-2.937,-2.937 -7.567,-3.389 -11.007,-1.076c-0.645,0.434 -1.42,0.59 -2.182,0.441c-0.763,-0.149 -1.421,-0.586 -1.855,-1.232c-0.895,-1.331 -0.541,-3.142 0.79,-4.037c1.124,-0.755 2.353,-1.349 3.655,-1.766c5.213,-1.668 10.85,-0.306 14.711,3.554l18.992,18.993c2.743,2.743 4.254,6.391 4.254,10.271c0,3.88 -1.511,7.528 -4.255,10.271l0,0Z" style="fill:#424242;fill-rule:nonzero;"/><path d="M163.343,118.714c0.556,-0.555 0.556,-1.454 0,-2.009l-1.703,-1.704c-0.555,-0.554 -1.455,-0.554 -2.009,0c-0.555,0.555 -0.555,1.454 0,2.009l1.704,1.704c0.277,0.277 0.641,0.416 1.004,0.416c0.363,0 0.727,-0.139 1.004,-0.416Z" style="fill:#424242;fill-rule:nonzero;"/><path d="M147.15,100.512c-0.554,-0.554 -1.453,-0.555 -2.009,0c-0.554,0.554 -0.554,1.454 0,2.009l10.796,10.795c0.278,0.278 0.641,0.416 1.004,0.416c0.364,0 0.728,-0.138 1.005,-0.416c0.554,-0.554 0.554,-1.454 0,-2.009l-10.796,-10.795Z" style="fill:#424242;fill-rule:nonzero;"/></g></g></g></svg>