<?xml version="1.0" encoding="UTF-8" standalone="no"?>
<!DOCTYPE svg PUBLIC "-//W3C//DTD SVG 1.1//EN" "http://www.w3.org/Graphics/SVG/1.1/DTD/svg11.dtd">
<svg width="100%" height="100%" viewBox="0 0 344 221" version="1.1" xmlns="http://www.w3.org/2000/svg" xmlns:xlink="http://www.w3.org/1999/xlink" xml:space="preserve" style="fill-rule:evenodd;clip-rule:evenodd;stroke-linejoin:round;stroke-miterlimit:1.41421;">
    <rect id="Artboard1" x="0" y="0" width="343.931" height="220.339" style="fill:none;"/>
    <g>
        <rect x="-9.41" y="-1.718" width="362.532" height="223.799" style="fill:rgb(162,222,208);"/>
        <g>
            <g>
                <path d="M176.302,104.324L176.865,104.887L176.302,104.325L176.302,104.324Z" style="fill:rgb(209,220,235);fill-rule:nonzero;"/>
                <path d="M201.415,117.192L182.425,98.202C182.424,98.201 182.424,98.201 182.423,98.2C178.124,93.902 171.843,92.516 166.276,94.297C164.879,94.744 163.526,95.387 162.261,96.237C160.277,97.572 159.75,100.262 161.084,102.246C162.418,104.23 165.108,104.757 167.093,103.423C169.972,101.487 173.844,101.867 176.302,104.324L176.866,104.887L195.293,123.315C196.669,124.691 197.427,126.521 197.427,128.468C197.427,130.414 196.669,132.244 195.293,133.621C193.916,134.998 192.086,135.756 190.139,135.756C188.193,135.756 186.363,134.998 184.987,133.621L177.433,126.067C175.846,126.577 174.203,126.831 172.564,126.832C168.45,126.832 164.364,125.244 161.28,122.16L159.872,120.752L178.864,139.744C181.875,142.756 185.88,144.414 190.139,144.414C194.399,144.414 198.403,142.756 201.415,139.744C204.427,136.732 206.086,132.727 206.086,128.468C206.086,124.208 204.427,120.204 201.415,117.192L201.415,117.192Z" style="fill:rgb(78,201,220);fill-rule:nonzero;"/>
                <path d="M182.684,118.025C181.332,116.053 178.638,115.55 176.666,116.902C173.779,118.881 169.883,118.518 167.403,116.038L148.413,97.048C145.571,94.206 145.571,89.582 148.413,86.741C149.789,85.365 151.619,84.607 153.566,84.607C155.513,84.607 157.343,85.365 158.719,86.741L166.276,94.297C171.843,92.516 178.123,93.902 182.423,98.2L164.841,80.619C161.83,77.607 157.826,75.948 153.566,75.948C149.306,75.948 145.302,77.607 142.29,80.619C136.072,86.836 136.072,96.953 142.29,103.17L161.28,122.16C164.364,125.244 168.449,126.832 172.564,126.832C174.203,126.832 175.846,126.577 177.432,126.067C178.871,125.605 180.263,124.934 181.562,124.044C183.534,122.692 184.037,119.997 182.684,118.025L182.684,118.025Z" style="fill:rgb(209,220,235);fill-rule:nonzero;"/>
            </g>
        </g>
    </g>
</svg>
