<?xml version="1.0" encoding="UTF-8" standalone="no"?><!DOCTYPE svg PUBLIC "-//W3C//DTD SVG 1.1//EN" "http://www.w3.org/Graphics/SVG/1.1/DTD/svg11.dtd"><svg width="100%" height="100%" viewBox="0 0 344 221" version="1.1" xmlns="http://www.w3.org/2000/svg" xmlns:xlink="http://www.w3.org/1999/xlink" xml:space="preserve" style="fill-rule:evenodd;clip-rule:evenodd;stroke-linejoin:round;stroke-miterlimit:1.41421;"><rect id="Artboard1" x="0" y="0" width="343.931" height="220.339" style="fill:none;"/><clipPath id="_clip1"><rect x="0" y="0" width="343.931" height="220.339"/></clipPath><g clip-path="url(#_clip1)"><rect x="-9.41" y="-1.718" width="362.532" height="223.799" style="fill:#a2ded0;"/><g><g><path d="M179.368,100.285l0.951,0.951l-0.951,-0.95l0,-0.001Z" style="fill:#d1dceb;fill-rule:nonzero;"/><path d="M221.799,122.027l-32.086,-32.086c-0.001,-0.001 -0.002,-0.002 -0.003,-0.003c-7.264,-7.262 -17.876,-9.604 -27.283,-6.594c-2.36,0.755 -4.646,1.842 -6.783,3.278c-3.352,2.255 -4.242,6.8 -1.988,10.152c2.254,3.353 6.799,4.243 10.152,1.989c4.864,-3.271 11.407,-2.63 15.56,1.522l0.952,0.952l31.134,31.135c2.326,2.325 3.606,5.417 3.606,8.706c0,3.289 -1.28,6.381 -3.606,8.707c-2.326,2.326 -5.418,3.607 -8.707,3.607c-3.289,0 -6.381,-1.281 -8.706,-3.607l-12.763,-12.763c-2.681,0.861 -5.457,1.291 -8.226,1.292c-6.951,0 -13.854,-2.682 -19.065,-7.893l-2.379,-2.379c0,0 0.001,0.001 0.002,0.002l32.086,32.086c5.088,5.089 11.854,7.891 19.051,7.891c7.197,0 13.963,-2.802 19.051,-7.891c5.089,-5.089 7.892,-11.855 7.892,-19.052c0,-7.197 -2.803,-13.962 -7.891,-19.051Z" style="fill:#4ec9dc;fill-rule:nonzero;"/><path d="M190.151,123.434c-2.284,-3.332 -6.837,-4.182 -10.169,-1.898c-4.878,3.345 -11.46,2.731 -15.65,-1.459l-32.086,-32.086c-4.801,-4.801 -4.801,-12.613 0,-17.414c2.326,-2.325 5.418,-3.606 8.707,-3.606c3.289,0 6.381,1.281 8.707,3.606l12.767,12.767c9.407,-3.01 20.018,-0.668 27.283,6.594l-29.706,-29.705c-5.088,-5.089 -11.854,-7.892 -19.051,-7.892c-7.197,0 -13.963,2.803 -19.052,7.892c-10.505,10.505 -10.505,27.598 0,38.103l32.086,32.085c5.211,5.211 12.113,7.893 19.065,7.893c2.769,0 5.545,-0.431 8.225,-1.292c2.431,-0.781 4.783,-1.915 6.977,-3.419c3.332,-2.284 4.182,-6.837 1.897,-10.169Z" style="fill:#d1dceb;fill-rule:nonzero;"/></g><g><path d="M161.701,58.536c-5.542,-5.542 -12.91,-8.595 -20.748,-8.595c-7.838,0 -15.206,3.053 -20.749,8.595c-5.534,5.534 -8.581,12.902 -8.581,20.748c0,7.846 3.047,15.215 8.581,20.749l61.794,61.794c5.543,5.542 12.911,8.594 20.749,8.594c7.838,0 15.206,-3.052 20.748,-8.594c5.543,-5.542 8.595,-12.911 8.595,-20.749c0,-7.838 -3.052,-15.206 -8.595,-20.748l-61.794,-61.794Zm-38.102,38.103c-4.628,-4.628 -7.176,-10.791 -7.176,-17.355c0,-6.564 2.548,-12.727 7.176,-17.354c4.635,-4.636 10.798,-7.189 17.354,-7.189c6.556,0 12.719,2.553 17.355,7.189l18.354,18.354l0.009,0.005c-4.496,-0.937 -9.138,-0.813 -13.555,0.358l0.003,-0.005l-11.762,-11.762c-2.779,-2.779 -6.474,-4.309 -10.404,-4.309c-3.93,0 -7.625,1.53 -10.404,4.309c-5.736,5.737 -5.736,15.071 0,20.808l32.086,32.086c5.007,5.007 12.873,5.74 18.704,1.742c1.083,-0.743 2.39,-1.019 3.68,-0.778c1.291,0.241 2.41,0.97 3.153,2.053c0.742,1.083 1.018,2.39 0.777,3.68c-0.24,1.291 -0.969,2.41 -2.052,3.153c-1.954,1.339 -4.092,2.387 -6.354,3.113c-2.43,0.781 -4.95,1.177 -7.492,1.177c-6.563,0 -12.731,-2.553 -17.367,-7.19l-32.085,-32.085Zm28.065,1.474c1.448,2.154 3.648,3.615 6.194,4.113c2.546,0.499 5.135,-0.024 7.288,-1.471c3.913,-2.632 9.179,-2.116 12.523,1.226c0.001,0 0.001,0.001 0.002,0.001l0.951,0.952c0.001,0 0.001,0.001 0.002,0.002l31.133,31.133c1.872,1.872 2.903,4.361 2.903,7.009c0,2.648 -1.031,5.138 -2.903,7.01c-1.873,1.873 -4.362,2.904 -7.01,2.904c-2.648,0 -5.137,-1.031 -7.009,-2.904l-10.184,-10.183c1.41,-0.665 2.768,-1.439 4.057,-2.322c2.14,-1.467 3.581,-3.68 4.057,-6.231c0.476,-2.551 -0.07,-5.135 -1.537,-7.275c-1.467,-2.14 -3.68,-3.581 -6.231,-4.057c-2.551,-0.476 -5.135,0.07 -7.275,1.537c-3.925,2.691 -9.222,2.196 -12.596,-1.177l-32.086,-32.086c-3.865,-3.865 -3.865,-10.155 0,-14.02c1.873,-1.872 4.362,-2.903 7.01,-2.903c2.648,0 5.137,1.031 7.01,2.903l10.183,10.184c-1.334,0.627 -2.619,1.351 -3.841,2.173c-4.445,2.989 -5.63,9.037 -2.641,13.482Zm68.437,60.32c-4.635,4.635 -10.798,7.188 -17.354,7.188c-6.556,0 -12.719,-2.553 -17.354,-7.188l-18.325,-18.325l-0.006,-0.003c1.949,0.401 3.953,0.609 5.99,0.608c2.547,0 5.076,-0.336 7.538,-0.993l-0.003,0.006l11.756,11.756c2.78,2.779 6.474,4.309 10.404,4.309c3.93,0 7.625,-1.53 10.404,-4.309c2.779,-2.779 4.309,-6.474 4.309,-10.404c0,-3.93 -1.53,-7.625 -4.309,-10.404l-31.135,-31.134l-0.951,-0.952c-4.962,-4.962 -12.784,-5.725 -18.597,-1.817c-1.089,0.733 -2.399,0.997 -3.687,0.745c-1.288,-0.252 -2.401,-0.991 -3.134,-2.081c-1.512,-2.249 -0.913,-5.309 1.336,-6.821c1.898,-1.276 3.975,-2.28 6.175,-2.984c8.807,-2.818 18.331,-0.517 24.855,6.005c0.007,0.007 0.013,0.013 0.02,0.02l32.069,32.069c4.635,4.635 7.188,10.799 7.188,17.354c0,6.556 -2.553,12.719 -7.189,17.355Z" style="fill:#424242;fill-rule:nonzero;"/><path d="M157.473,124.598c0.938,-0.937 0.938,-2.457 0,-3.394l-2.879,-2.88c-0.937,-0.936 -2.457,-0.936 -3.394,0c-0.938,0.938 -0.938,2.457 0,3.395l2.879,2.879c0.469,0.469 1.083,0.703 1.697,0.703c0.614,0 1.229,-0.234 1.697,-0.703Z" style="fill:#424242;fill-rule:nonzero;"/><path d="M130.113,93.844c-0.937,-0.936 -2.456,-0.937 -3.394,0c-0.937,0.937 -0.937,2.457 0,3.395l18.24,18.239c0.469,0.469 1.083,0.703 1.697,0.703c0.614,0 1.229,-0.234 1.697,-0.703c0.937,-0.937 0.937,-2.457 0,-3.394l-18.24,-18.24Z" style="fill:#424242;fill-rule:nonzero;"/></g></g></g></svg>