<?xml version="1.0" encoding="UTF-8" standalone="no"?>
<svg
   xmlns:dc="http://purl.org/dc/elements/1.1/"
   xmlns:cc="http://creativecommons.org/ns#"
   xmlns:rdf="http://www.w3.org/1999/02/22-rdf-syntax-ns#"
   xmlns:svg="http://www.w3.org/2000/svg"
   xmlns="http://www.w3.org/2000/svg"
   xmlns:sodipodi="http://sodipodi.sourceforge.net/DTD/sodipodi-0.dtd"
   xmlns:inkscape="http://www.inkscape.org/namespaces/inkscape"
   width="100%"
   height="100%"
   viewBox="0 0 344 221"
   version="1.1"
   xml:space="preserve"
   style="fill-rule:evenodd;clip-rule:evenodd;stroke-linejoin:round;stroke-miterlimit:1.41421;"
   id="svg3642"
   inkscape:version="0.91 r13725"
   sodipodi:docname="lucky.svg"><metadata
     id="metadata3681"><rdf:RDF><cc:Work
         rdf:about=""><dc:format>image/svg+xml</dc:format><dc:type
           rdf:resource="http://purl.org/dc/dcmitype/StillImage" /><dc:title /></cc:Work></rdf:RDF></metadata><defs
     id="defs3679" /><sodipodi:namedview
     pagecolor="#ffffff"
     bordercolor="#666666"
     borderopacity="1"
     objecttolerance="10"
     gridtolerance="10"
     guidetolerance="10"
     inkscape:pageopacity="0"
     inkscape:pageshadow="2"
     inkscape:window-width="1185"
     inkscape:window-height="821"
     id="namedview3677"
     showgrid="false"
     inkscape:zoom="2.0765262"
     inkscape:cx="135.62709"
     inkscape:cy="112.69245"
     inkscape:window-x="0"
     inkscape:window-y="0"
     inkscape:window-maximized="0"
     inkscape:current-layer="g3645" /><g
     id="g3645"><rect
       x="-9.41"
       y="-1.718"
       width="362.532"
       height="223.799"
       style="fill:#dcc6e0;fill-opacity:1;stroke:none;stroke-opacity:1;opacity:1"
       id="rect3647" /><path
       style="opacity:1;fill:#89c4f4;fill-opacity:1;stroke:none;stroke-opacity:1"
       d="M 159.36523 74.574219 A 32.34977 32.34977 0 0 0 127.01562 106.92383 A 32.34977 32.34977 0 0 0 159.36523 139.27344 A 32.34977 32.34977 0 0 0 191.71484 106.92383 A 32.34977 32.34977 0 0 0 159.36523 74.574219 z M 158.85352 81.384766 A 25.709553 25.709553 0 0 1 184.56445 107.0957 A 25.709553 25.709553 0 0 1 158.85352 132.80469 A 25.709553 25.709553 0 0 1 133.14453 107.0957 A 25.709553 25.709553 0 0 1 158.85352 81.384766 z "
       id="path4635" /><circle
       r="5.4483829"
       cy="155.10864"
       cx="207.20879"
       id="circle4657"
       style="opacity:1;fill:#f6ce46;fill-opacity:1;stroke:none;stroke-opacity:1" /><circle
       style="opacity:1;fill:#f6ce46;fill-opacity:1;stroke:none;stroke-opacity:1"
       id="circle4659"
       cx="192.73653"
       cy="141.14716"
       r="5.4483829" /><g
       id="g3807"
       transform="translate(119.12318,67.03011)"
       style="fill:#008080"><circle
         style="opacity:0.192;fill:#ffffff"
         id="path4152"
         cx="39.220428"
         cy="39.724121"
         r="26.390602" /><path
         id="path3791"
         d="M 92.94,82.96 78.66,68.69 C 76.35,66.37 72.81,66.01 70.11,67.6 L 65.73,63.22 C 78.09,49.55 77.68,28.37 64.51,15.2 50.91,1.6 28.79,1.6 15.2,15.2 1.6,28.79 1.6,50.91 15.2,64.51 28.37,77.68 49.55,78.09 63.22,65.73 l 4.38,4.38 c -1.59,2.7 -1.23,6.24 1.09,8.55 l 14.27,14.28 c 2.75,2.75 7.23,2.75 9.98,0 2.75,-2.75 2.75,-7.23 0,-9.98 z M 62,62 C 49.79,74.21 29.92,74.21 17.7,62 5.49,49.79 5.49,29.92 17.7,17.7 29.92,5.49 49.79,5.49 62,17.7 74.21,29.92 74.21,49.79 62,62 Z m 9.2,9.2 c 1.06,-1.07 2.64,-1.29 3.93,-0.7 l -4.63,4.63 c -0.59,-1.29 -0.37,-2.87 0.7,-3.93 z m 19.23,19.23 c -1,1 -2.46,1.26 -3.7,0.8 l 4.5,-4.5 c 0.46,1.24 0.2,2.7 -0.8,3.7 z"
         inkscape:connector-curvature="0"
         style="fill:#424242;fill-opacity:1" /><path
         id="path3793"
         d="m 20.923,20.923 c -10.435,10.435 -10.435,27.417 0,37.851 10.435,10.434 27.417,10.435 37.851,0 10.434,-10.435 10.435,-27.417 0,-37.851 -10.435,-10.434 -27.416,-10.435 -37.851,0 z m 36.184,36.184 c -9.51,9.51 -24.989,9.51 -34.508,-0.009 -9.51,-9.51 -9.51,-24.989 0,-34.5 9.51,-9.511 24.989,-9.51 34.5,0 9.518,9.52 9.518,24.999 0.008,34.509 z"
         inkscape:connector-curvature="0"
         style="fill:#424242;fill-opacity:1" /><path
         id="path3795"
         d="m 19.475,40.86 c -0.552,0 -1,-0.448 -1,-1 0,-5.721 2.222,-11.094 6.257,-15.129 4.037,-4.037 9.41,-6.261 15.128,-6.261 0.552,0 1,0.448 1,1 0,0.552 -0.448,1 -1,1 -5.184,0 -10.055,2.015 -13.714,5.675 -3.657,3.658 -5.671,8.529 -5.671,13.715 0,0.553 -0.448,1 -1,1 z"
         inkscape:connector-curvature="0"
         style="fill:#ffffff;fill-opacity:0.94117647" /></g></g><rect
     id="Artboard1"
     x="0"
     y="0"
     width="343.931"
     height="220.339"
     style="fill:none;" /></svg>