<?xml version="1.0" encoding="UTF-8" standalone="no"?><!DOCTYPE svg PUBLIC "-//W3C//DTD SVG 1.1//EN" "http://www.w3.org/Graphics/SVG/1.1/DTD/svg11.dtd"><svg width="100%" height="100%" viewBox="0 0 344 221" version="1.1" xmlns="http://www.w3.org/2000/svg" xmlns:xlink="http://www.w3.org/1999/xlink" xml:space="preserve" style="fill-rule:evenodd;clip-rule:evenodd;stroke-linecap:round;stroke-linejoin:round;stroke-miterlimit:1.5;"><g id="g3645"><rect id="rect3647" x="0" y="0" width="344" height="221" style="fill:#dcc6e0;"/><g><circle cx="161.265" cy="99.765" r="23.304" style="fill:#e9d5ed;stroke:#555;stroke-width:5px;"/><path d="M144.312,99.765c0,-9.357 7.596,-16.953 16.953,-16.953" style="fill:none;stroke:#fff;stroke-width:2.5px;"/><path d="M180.924,114.012l-5.412,5.412l7.909,7.909l5.412,-5.412l-7.909,-7.909Z" style="fill:#555;"/><path d="M188.434,119.937c-1.777,-1.777 -4.661,-1.777 -6.438,0l-0.559,0.559c-1.777,1.777 -1.777,4.661 0,6.438l16.272,16.272c1.777,1.777 4.661,1.777 6.438,0l0.559,-0.559c1.777,-1.777 1.777,-4.661 0,-6.438l-16.272,-16.272Z" style="fill:#9e6161;"/><path d="M185.215,116.718l-6.997,6.997l7.909,7.909l6.997,-6.997l-7.909,-7.909Z" style="fill:#f1c40f;"/></g></g><rect id="Artboard1" x="0" y="0" width="343.931" height="220.339" style="fill:none;"/></svg>