<?xml version="1.0" encoding="UTF-8" standalone="no"?><!DOCTYPE svg PUBLIC "-//W3C//DTD SVG 1.1//EN" "http://www.w3.org/Graphics/SVG/1.1/DTD/svg11.dtd"><svg width="100%" height="100%" viewBox="0 0 344 221" version="1.1" xmlns="http://www.w3.org/2000/svg" xmlns:xlink="http://www.w3.org/1999/xlink" xml:space="preserve" style="fill-rule:evenodd;clip-rule:evenodd;stroke-linejoin:round;stroke-miterlimit:1.41421;"><rect id="Artboard1" x="-0.097" y="0.352" width="343.931" height="220.339" style="fill:none;"/><rect id="rect4141" x="0" y="0" width="344" height="221" style="fill:#a2ded0;"/><g><g><path d="M137.717,122.719c0,0 -5.621,-8.546 -5.48,-12.353c0.142,-3.807 3.14,-7.054 2.905,-9.112c-0.235,-2.058 -0.526,-4.111 0,-6.403c0.526,-2.291 9.295,-16.391 16.626,-19.391c7.33,-3 16.311,-6.842 27.523,-4.907c7.301,1.26 9.572,4.618 12.593,5.437c3.022,0.82 11.812,9.54 14.301,14.718c2.489,5.179 2.493,12.97 2.848,14.729c0.355,1.759 1.413,4.83 1.254,6.022c-0.159,1.192 -2.143,10.695 -2.143,10.695l-70.427,0.565" style="fill:#7e4e20;"/><path d="M139.726,121.798c-0.207,-1.513 -0.314,-3.057 -0.314,-4.626c0,-18.652 15.143,-33.796 33.796,-33.796c18.653,0 33.796,15.144 33.796,33.796c0,1.544 -0.103,3.063 -0.304,4.552c2.872,0.475 5.065,2.973 5.065,5.979c0,3.344 -2.715,6.06 -6.06,6.06c-0.971,0 -1.888,-0.229 -2.702,-0.635c-5.702,10.616 -16.911,17.841 -29.795,17.841c-12.82,0 -23.982,-7.153 -29.709,-17.683c-0.709,0.291 -1.484,0.451 -2.297,0.451c-3.344,0 -6.06,-2.716 -6.06,-6.06c0,-2.836 1.952,-5.219 4.584,-5.879l0,0Z" style="fill:#f1c0a2;"/><circle cx="157.879" cy="110.627" r="12.093" style="fill:#fff;"/><circle cx="187.941" cy="110.033" r="12.093" style="fill:#fff;"/></g></g></svg>