<?xml version="1.0" encoding="UTF-8" standalone="no"?>
<!DOCTYPE svg PUBLIC "-//W3C//DTD SVG 1.1//EN" "http://www.w3.org/Graphics/SVG/1.1/DTD/svg11.dtd">
<svg width="100%" height="100%" viewBox="0 0 344 221" version="1.1" xmlns="http://www.w3.org/2000/svg" xmlns:xlink="http://www.w3.org/1999/xlink" xml:space="preserve" style="fill-rule:evenodd;clip-rule:evenodd;stroke-linejoin:round;stroke-miterlimit:1.41421;">
    <rect id="Artboard1" x="-0.097" y="0.352" width="343.931" height="220.339" style="fill:none;"/>
    <rect id="rect4141" x="0" y="0" width="344" height="221" style="fill:rgb(255,220,144);"/>
    <g>
        <path d="M137.717,122.719C137.717,122.719 132.096,114.173 132.237,110.366C132.379,106.559 135.377,103.312 135.142,101.254C134.907,99.196 134.616,97.143 135.142,94.851C135.668,92.56 144.437,78.46 151.768,75.46C159.098,72.46 168.079,68.618 179.291,70.553C186.592,71.813 188.863,75.171 191.884,75.99C194.906,76.81 203.696,85.53 206.185,90.708C208.674,95.887 208.678,103.678 209.033,105.437C209.388,107.196 210.446,110.267 210.287,111.459C210.128,112.651 208.144,122.154 208.144,122.154L137.717,122.719" style="fill:rgb(126,78,32);"/>
        <path d="M139.726,121.798C139.519,120.285 139.412,118.741 139.412,117.172C139.412,98.52 154.555,83.376 173.208,83.376C191.861,83.376 207.004,98.52 207.004,117.172C207.004,118.716 206.901,120.235 206.7,121.724C209.572,122.199 211.765,124.697 211.765,127.703C211.765,131.047 209.05,133.763 205.705,133.763C204.734,133.763 203.817,133.534 203.003,133.128C197.301,143.744 186.092,150.969 173.208,150.969C160.388,150.969 149.226,143.816 143.499,133.286C142.79,133.577 142.015,133.737 141.202,133.737C137.858,133.737 135.142,131.021 135.142,127.677C135.142,124.841 137.094,122.458 139.726,121.798L139.726,121.798Z" style="fill:rgb(241,192,162);"/>
        <circle cx="157.879" cy="110.627" r="12.093" style="fill:white;"/>
        <circle cx="187.941" cy="110.033" r="12.093" style="fill:white;"/>
    </g>
</svg>
