<?xml version="1.0" encoding="UTF-8" standalone="no"?><!DOCTYPE svg PUBLIC "-//W3C//DTD SVG 1.1//EN" "http://www.w3.org/Graphics/SVG/1.1/DTD/svg11.dtd"><svg width="100%" height="100%" viewBox="0 0 344 221" version="1.1" xmlns="http://www.w3.org/2000/svg" xmlns:xlink="http://www.w3.org/1999/xlink" xml:space="preserve" style="fill-rule:evenodd;clip-rule:evenodd;stroke-linecap:round;stroke-linejoin:round;stroke-miterlimit:1.5;"><rect id="Artboard1" x="0" y="0" width="343.931" height="220.339" style="fill:none;"/><clipPath id="_clip1"><rect x="0" y="0" width="343.931" height="220.339"/></clipPath><g clip-path="url(#_clip1)"><rect x="-9.41" y="-7.556" width="362.532" height="252.504" style="fill:#f5cf87;stroke:#f5cf87;stroke-width:6.5px;"/><circle cx="171.971" cy="109.819" r="122.066" style="fill:#f5cf87;"/><path d="M248.263,174.667c0,4.196 -3.433,7.629 -7.629,7.629l-137.325,0c-4.196,0 -7.629,-3.433 -7.629,-7.629l0,-114.437c0,-4.196 3.433,-7.629 7.629,-7.629l137.325,0c4.196,0 7.629,3.433 7.629,7.629l0,114.437Z" style="fill:#231f20;fill-opacity:0.2;fill-rule:nonzero;"/><path d="M248.263,167.038c0,4.196 -3.433,7.629 -7.629,7.629l-137.325,0c-4.196,0 -7.629,-3.433 -7.629,-7.629l0,-114.437c0,-4.196 3.433,-7.629 7.629,-7.629l137.325,0c4.196,0 7.629,3.433 7.629,7.629l0,114.437Z" style="fill:#4f5d73;fill-rule:nonzero;"/><path d="M233.004,128.892c0,4.196 -3.433,7.629 -7.629,7.629l-106.807,0c-4.196,0 -7.63,-3.433 -7.63,-7.629l0,-61.414c0,-4.196 3.434,-7.629 7.63,-7.629l106.807,0c4.196,0 7.629,3.433 7.629,7.629l0,61.414Z" style="fill:#e0e0d1;fill-rule:nonzero;"/><path d="M225.375,59.849l-106.807,0c-4.196,0 -7.63,3.433 -7.63,7.629l0,4.196c0,-4.196 3.434,-7.629 7.63,-7.629l106.807,0c4.196,0 7.629,3.433 7.629,7.629l0,-4.196c0,-4.196 -3.433,-7.629 -7.629,-7.629Z" style="fill:#231f20;fill-opacity:0.2;fill-rule:nonzero;"/><path d="M126.197,159.409c0,4.196 -3.433,7.629 -7.629,7.629c-4.196,0 -7.63,-3.433 -7.63,-7.629c0,-4.196 3.434,-7.629 7.63,-7.629c4.196,0 7.629,3.433 7.629,7.629Z" style="fill:#231f20;fill-opacity:0.2;fill-rule:nonzero;"/><path d="M233.004,159.409c0,4.196 -3.433,7.629 -7.629,7.629c-4.196,0 -7.629,-3.433 -7.629,-7.629c0,-4.196 3.433,-7.629 7.629,-7.629c4.196,0 7.629,3.433 7.629,7.629Z" style="fill:#231f20;fill-opacity:0.2;fill-rule:nonzero;"/><path d="M126.197,155.594c0,4.196 -3.433,7.629 -7.629,7.629c-4.196,0 -7.63,-3.433 -7.63,-7.629c0,-4.196 3.434,-7.629 7.63,-7.629c4.196,0 7.629,3.433 7.629,7.629Z" style="fill:#76c2af;fill-rule:nonzero;"/><path d="M233.004,155.594c0,4.196 -3.433,7.629 -7.629,7.629c-4.196,0 -7.629,-3.433 -7.629,-7.629c0,-4.196 3.433,-7.629 7.629,-7.629c4.196,0 7.629,3.433 7.629,7.629Z" style="fill:#76c2af;fill-rule:nonzero;"/><path d="M145.27,159.409c0,2.289 -1.526,3.814 -3.815,3.814c-2.289,0 -3.815,-1.525 -3.815,-3.814l0,-7.629c0,-2.289 1.526,-3.815 3.815,-3.815c2.289,0 3.815,1.526 3.815,3.815l0,7.629Z" style="fill:#f5cf87;fill-rule:nonzero;"/><path d="M160.528,159.409c0,2.289 -1.526,3.814 -3.815,3.814c-2.289,0 -3.814,-1.525 -3.814,-3.814l0,-7.629c0,-2.289 1.525,-3.815 3.814,-3.815c2.289,0 3.815,1.526 3.815,3.815l0,7.629Z" style="fill:#f5cf87;fill-rule:nonzero;"/><path d="M191.044,159.409c0,2.289 -1.526,3.814 -3.814,3.814c-2.289,0 -3.815,-1.525 -3.815,-3.814l0,-7.629c0,-2.289 1.526,-3.815 3.815,-3.815c2.288,0 3.814,1.526 3.814,3.815l0,7.629Z" style="fill:#f5cf87;fill-rule:nonzero;"/><path d="M206.303,159.409c0,2.289 -1.526,3.814 -3.815,3.814c-2.289,0 -3.815,-1.525 -3.815,-3.814l0,-7.629c0,-2.289 1.526,-3.815 3.815,-3.815c2.289,0 3.815,1.526 3.815,3.815l0,7.629Z" style="fill:#f5cf87;fill-rule:nonzero;"/><path d="M175.786,159.409c0,2.289 -1.526,3.814 -3.815,3.814c-2.288,0 -3.814,-1.525 -3.814,-3.814l0,-7.629c0,-2.289 1.526,-3.815 3.814,-3.815c2.289,0 3.815,1.526 3.815,3.815l0,7.629Z" style="fill:#f5cf87;fill-rule:nonzero;"/><g><g opacity="0.2"><path d="M141.455,147.965c-2.289,0 -3.815,1.526 -3.815,3.815l0,3.814c0,-2.289 1.526,-3.814 3.815,-3.814c2.289,0 3.815,1.525 3.815,3.814l0,-3.814c0,-2.289 -1.526,-3.815 -3.815,-3.815Z" style="fill:#231f20;fill-rule:nonzero;"/><path d="M156.713,147.965c-2.289,0 -3.814,1.526 -3.814,3.815l0,3.814c0,-2.289 1.525,-3.814 3.814,-3.814c2.289,0 3.815,1.525 3.815,3.814l0,-3.814c0,-2.289 -1.526,-3.815 -3.815,-3.815Z" style="fill:#231f20;fill-rule:nonzero;"/><path d="M187.23,147.965c-2.289,0 -3.815,1.526 -3.815,3.815l0,3.814c0,-2.289 1.526,-3.814 3.815,-3.814c2.288,0 3.814,1.525 3.814,3.814l0,-3.814c0,-2.289 -1.526,-3.815 -3.814,-3.815Z" style="fill:#231f20;fill-rule:nonzero;"/><path d="M202.488,147.965c-2.289,0 -3.815,1.526 -3.815,3.815l0,3.814c0,-2.289 1.526,-3.814 3.815,-3.814c2.289,0 3.815,1.525 3.815,3.814l0,-3.814c0,-2.289 -1.526,-3.815 -3.815,-3.815Z" style="fill:#231f20;fill-rule:nonzero;"/><path d="M171.971,147.965c-2.288,0 -3.814,1.526 -3.814,3.815l0,3.814c0,-2.289 1.526,-3.814 3.814,-3.814c2.289,0 3.815,1.525 3.815,3.814l0,-3.814c0,-2.289 -1.526,-3.815 -3.815,-3.815Z" style="fill:#231f20;fill-rule:nonzero;"/></g></g><path d="M233.004,128.892l0,-61.414c0,-4.196 -3.433,-7.629 -7.629,-7.629l-78.198,0l44.249,76.672l33.949,0c4.196,0 7.629,-3.433 7.629,-7.629Z" style="fill:#fff;fill-opacity:0.2;fill-rule:nonzero;"/></g></svg>