<?xml version="1.0" encoding="UTF-8" standalone="no"?><!DOCTYPE svg PUBLIC "-//W3C//DTD SVG 1.1//EN" "http://www.w3.org/Graphics/SVG/1.1/DTD/svg11.dtd"><svg width="100%" height="100%" viewBox="0 0 344 221" version="1.1" xmlns="http://www.w3.org/2000/svg" xmlns:xlink="http://www.w3.org/1999/xlink" xml:space="preserve" style="fill-rule:evenodd;clip-rule:evenodd;stroke-linejoin:round;stroke-miterlimit:1.41421;"><rect id="Artboard1" x="0" y="0" width="343.931" height="220.339" style="fill:none;"/><g><rect x="-9.41" y="-1.718" width="362.532" height="223.799" style="fill:#f5cf87;"/><ellipse cx="125.003" cy="50.072" rx="2.06" ry="2.12" style="fill:#3d495b;"/><ellipse cx="164.091" cy="50.044" rx="2.384" ry="2.15" style="fill:#3d495b;"/><rect x="120.513" y="164.993" width="6.491" height="8.338" style="fill:#3d495b;"/><rect x="216.533" y="164.993" width="6.491" height="8.338" style="fill:#3d495b;"/><rect x="110.735" y="85.402" width="122.352" height="79.941" style="fill:#4f5d73;"/><path d="M198.972,106.563c0,-5.889 -4.781,-10.671 -10.67,-10.671l-58.293,0c-5.889,0 -10.671,4.782 -10.671,10.671l0,37.602c0,5.889 4.782,10.67 10.671,10.67l58.293,0c5.889,0 10.67,-4.781 10.67,-10.67l0,-37.602Z" style="fill:#e6e6da;"/><circle cx="214.386" cy="141.438" r="6.534" style="fill:#76c2af;"/><path d="M222.156,174.643l-5.477,0c-0.712,0 -1.289,-0.578 -1.289,-1.289l0,-6.686l-87.068,0l0,6.686c0,0.711 -0.577,1.289 -1.289,1.289l-5.477,0c-0.568,0 -1.069,-0.372 -1.234,-0.915l-2.139,-7.06l-7.548,0c-0.711,0 -1.289,-0.578 -1.289,-1.289l0,-80.231c0,-0.712 0.578,-1.289 1.289,-1.289l25.934,0l-11.521,-30.097c-2.242,0.011 -4.048,-1.795 -4.048,-4.021c0,-2.217 1.804,-4.021 4.02,-4.021c2.217,0 4.021,1.804 4.021,4.021c0,1.289 -0.61,2.438 -1.557,3.174l11.845,30.944l10.463,0l11.665,-31.126c-0.821,-0.737 -1.338,-1.805 -1.338,-2.992c0,-2.217 1.803,-4.021 4.02,-4.021c2.216,0 4.02,1.804 4.02,4.021c0,2.217 -1.804,4.021 -4.02,4.021c-0.105,0 -0.208,-0.004 -0.31,-0.013l-11.284,30.11l80.532,0c0.711,0 1.289,0.577 1.289,1.289l0,80.231c0,0.711 -0.578,1.289 -1.289,1.289l-7.548,0l-2.139,7.06c-0.165,0.543 -0.666,0.915 -1.234,0.915Zm-4.188,-2.578l3.233,0l1.635,-5.397l-4.868,0l0,5.397Zm-95.456,0l3.233,0l0,-5.397l-4.869,0l1.636,5.397Zm102.089,-7.975l7.186,0l0,-77.653l-119.863,0l0,77.653l112.619,0c0.021,-0.001 0.041,-0.001 0.058,0Zm-60.462,-115.792c-0.796,0 -1.443,0.647 -1.443,1.443c0,0.796 0.647,1.443 1.443,1.443c0.795,0 1.443,-0.647 1.443,-1.443c0,-0.796 -0.647,-1.443 -1.443,-1.443Zm-39.119,0c-0.795,0 -1.442,0.647 -1.442,1.443c0,0.796 0.647,1.443 1.442,1.443c0.795,0 1.443,-0.647 1.443,-1.443c0,-0.796 -0.648,-1.443 -1.443,-1.443Zm99.193,108.22l-2.137,0c-0.712,0 -1.289,-0.577 -1.289,-1.289c0,-0.711 0.577,-1.289 1.289,-1.289l2.137,0c0.711,0 1.289,0.578 1.289,1.289c0,0.712 -0.578,1.289 -1.289,1.289Zm-8.166,0l-2.137,0c-0.711,0 -1.288,-0.577 -1.288,-1.289c0,-0.711 0.577,-1.289 1.288,-1.289l2.137,0c0.712,0 1.289,0.578 1.289,1.289c0,0.712 -0.577,1.289 -1.289,1.289Zm-8.165,0l-2.137,0c-0.712,0 -1.289,-0.577 -1.289,-1.289c0,-0.711 0.577,-1.289 1.289,-1.289l2.137,0c0.712,0 1.289,0.578 1.289,1.289c0,0.712 -0.577,1.289 -1.289,1.289Zm-19.912,0l-57.354,0c-6.84,0 -12.406,-5.565 -12.406,-12.405l0,-37.699c0,-6.84 5.566,-12.405 12.406,-12.405l57.354,0c6.84,0 12.405,5.565 12.405,12.405l0,37.699c0,6.84 -5.565,12.405 -12.405,12.405Zm-57.354,-59.932c-5.419,0 -9.828,4.409 -9.828,9.828l0,37.699c0,5.419 4.409,9.827 9.828,9.827l57.354,0c5.419,0 9.827,-4.408 9.827,-9.827l0,-37.699c0,-5.419 -4.408,-9.828 -9.827,-9.828l-57.354,0l0,0Zm83.818,52.8c-4.323,0 -7.84,-3.517 -7.84,-7.841c0,-4.322 3.517,-7.84 7.84,-7.84c4.323,0 7.84,3.517 7.84,7.84c0,1.84 -0.636,3.535 -1.702,4.874c-0.003,0.003 -0.005,0.006 -0.008,0.009c-1.437,1.801 -3.651,2.958 -6.13,2.958Zm0,-13.103c-2.902,0 -5.263,2.361 -5.263,5.263c0,2.902 2.361,5.263 5.263,5.263c1.212,0 2.329,-0.412 3.22,-1.102l-1.109,-0.928c-0.547,-0.457 -0.619,-1.269 -0.162,-1.815c0.456,-0.547 1.27,-0.618 1.815,-0.161l1.047,0.875c0.29,-0.652 0.451,-1.373 0.451,-2.131c0.001,-2.903 -2.36,-5.264 -5.262,-5.264Zm8.71,-9.758l-17.399,0c-0.712,0 -1.289,-0.577 -1.289,-1.289c0,-0.711 0.577,-1.289 1.289,-1.289l17.399,0c0.712,0 1.289,0.578 1.289,1.289c0,0.712 -0.577,1.289 -1.289,1.289Zm-97.209,-4.14c-0.33,0 -0.659,-0.126 -0.911,-0.378c-0.503,-0.503 -0.503,-1.319 0,-1.822l19.81,-19.811c0.503,-0.504 1.319,-0.504 1.823,0c0.503,0.503 0.503,1.319 0,1.822l-19.811,19.811c-0.252,0.252 -0.581,0.378 -0.911,0.378Zm97.209,-1.848l-17.399,0c-0.712,0 -1.289,-0.577 -1.289,-1.289c0,-0.711 0.577,-1.289 1.289,-1.289l17.399,0c0.712,0 1.289,0.578 1.289,1.289c0,0.712 -0.577,1.289 -1.289,1.289Zm0,-5.987l-17.399,0c-0.712,0 -1.289,-0.578 -1.289,-1.289c0,-0.712 0.577,-1.289 1.289,-1.289l17.399,0c0.712,0 1.289,0.577 1.289,1.289c0,0.711 -0.577,1.289 -1.289,1.289Zm-96.986,-3.021c-0.33,0 -0.659,-0.126 -0.911,-0.378c-0.503,-0.503 -0.503,-1.319 0,-1.822l8.955,-8.955c0.503,-0.504 1.319,-0.504 1.822,0c0.504,0.503 0.504,1.319 0,1.822l-8.955,8.955c-0.252,0.252 -0.582,0.378 -0.911,0.378Zm96.986,-2.967l-17.399,0c-0.712,0 -1.289,-0.578 -1.289,-1.289c0,-0.712 0.577,-1.289 1.289,-1.289l17.399,0c0.712,0 1.289,0.577 1.289,1.289c0,0.711 -0.577,1.289 -1.289,1.289Zm0,-5.988l-17.399,0c-0.712,0 -1.289,-0.578 -1.289,-1.289c0,-0.712 0.577,-1.289 1.289,-1.289l17.399,0c0.712,0 1.289,0.577 1.289,1.289c0,0.711 -0.577,1.289 -1.289,1.289Zm0,-5.988l-17.399,0c-0.712,0 -1.289,-0.577 -1.289,-1.289c0,-0.711 0.577,-1.288 1.289,-1.288l17.399,0c0.712,0 1.289,0.577 1.289,1.288c0,0.712 -0.577,1.289 -1.289,1.289Z" style="fill:#424242;fill-rule:nonzero;"/></g></svg>