<?xml version="1.0" encoding="UTF-8" standalone="no"?><!DOCTYPE svg PUBLIC "-//W3C//DTD SVG 1.1//EN" "http://www.w3.org/Graphics/SVG/1.1/DTD/svg11.dtd"><svg width="100%" height="100%" viewBox="0 0 344 221" version="1.1" xmlns="http://www.w3.org/2000/svg" xmlns:xlink="http://www.w3.org/1999/xlink" xml:space="preserve" style="fill-rule:evenodd;clip-rule:evenodd;stroke-linejoin:round;stroke-miterlimit:1.41421;"><g id="g3645"><rect id="rect3647" x="0" y="0" width="344" height="221" style="fill:#dcc6e0;"/><circle cx="172" cy="110.5" r="35.126" style="fill:#89c4f4;"/><path d="M168.244,99.576c0.997,0 1.806,0.81 1.806,1.806l0,8.675c0,0.058 -0.003,0.115 -0.008,0.171c-0.002,0.096 -0.004,0.192 -0.008,0.289c-0.016,0.459 -0.054,0.917 -0.113,1.373c-0.063,0.488 -0.15,0.973 -0.263,1.452c-0.099,0.425 -0.218,0.845 -0.358,1.258c-0.109,0.324 -0.23,0.643 -0.364,0.958c-0.116,0.27 -0.24,0.536 -0.375,0.798c-0.841,1.638 -2.074,3.113 -3.675,4.052c-0.93,0.545 -1.971,0.895 -3.046,0.989c-0.163,0.014 -0.326,0.023 -0.489,0.026c-0.121,0.002 -0.242,0.001 -0.363,-0.014c-0.313,-0.039 -0.615,-0.155 -0.873,-0.336c-0.212,-0.148 -0.393,-0.338 -0.53,-0.557c-0.23,-0.364 -0.333,-0.803 -0.289,-1.232c0.02,-0.199 0.072,-0.395 0.152,-0.579c0.069,-0.158 0.159,-0.306 0.266,-0.44c0.126,-0.156 0.276,-0.293 0.443,-0.404c0.216,-0.142 0.459,-0.24 0.712,-0.288c0.085,-0.016 0.17,-0.024 0.256,-0.031c0.089,-0.003 0.178,-0.003 0.267,-0.007c0.179,-0.011 0.357,-0.035 0.533,-0.075c0.877,-0.202 1.629,-0.765 2.213,-1.433c0.098,-0.113 0.193,-0.23 0.283,-0.349c0.111,-0.146 0.215,-0.297 0.314,-0.451c0.119,-0.185 0.229,-0.376 0.331,-0.57c0.135,-0.256 0.257,-0.52 0.365,-0.788c0.126,-0.312 0.234,-0.631 0.326,-0.954c0.099,-0.346 0.179,-0.697 0.24,-1.052l-6.428,0c-0.997,0 -1.806,-0.809 -1.806,-1.806l0,-8.675c0,-0.996 0.809,-1.806 1.806,-1.806l8.675,0Z" style="fill:#fff;"/><path d="M184.431,99.576c0.997,0 1.806,0.81 1.806,1.806l0,8.675c0,0.058 -0.003,0.115 -0.008,0.171c-0.002,0.096 -0.004,0.192 -0.008,0.289c-0.017,0.459 -0.054,0.917 -0.113,1.373c-0.063,0.488 -0.15,0.973 -0.263,1.452c-0.099,0.425 -0.219,0.845 -0.358,1.258c-0.109,0.324 -0.231,0.643 -0.365,0.958c-0.115,0.27 -0.24,0.536 -0.374,0.798c-0.841,1.638 -2.075,3.113 -3.676,4.052c-0.929,0.545 -1.971,0.895 -3.046,0.989c-0.162,0.014 -0.325,0.023 -0.488,0.026c-0.121,0.002 -0.242,0.001 -0.363,-0.014c-0.313,-0.039 -0.615,-0.155 -0.874,-0.336c-0.211,-0.148 -0.392,-0.338 -0.53,-0.557c-0.229,-0.364 -0.332,-0.803 -0.288,-1.232c0.02,-0.199 0.072,-0.395 0.152,-0.579c0.069,-0.158 0.158,-0.306 0.266,-0.44c0.126,-0.156 0.276,-0.293 0.443,-0.404c0.215,-0.142 0.459,-0.24 0.712,-0.288c0.085,-0.016 0.17,-0.024 0.256,-0.031c0.089,-0.003 0.178,-0.003 0.266,-0.007c0.18,-0.011 0.358,-0.035 0.533,-0.075c0.877,-0.202 1.629,-0.765 2.213,-1.433c0.099,-0.113 0.194,-0.23 0.284,-0.349c0.111,-0.146 0.215,-0.297 0.314,-0.451c0.119,-0.185 0.229,-0.376 0.331,-0.57c0.135,-0.256 0.256,-0.52 0.365,-0.788c0.125,-0.312 0.234,-0.631 0.326,-0.954c0.099,-0.346 0.178,-0.697 0.24,-1.052l-6.428,0c-0.997,0 -1.806,-0.809 -1.806,-1.806l0,-8.675c0,-0.996 0.809,-1.806 1.806,-1.806l8.675,0Z" style="fill:#fff;"/></g><rect id="Artboard1" x="0" y="0" width="343.931" height="220.339" style="fill:none;"/><g id="g36451"><rect id="rect36471" x="0" y="0" width="344" height="221" style="fill:#dcc6e0;"/><circle cx="172" cy="110.5" r="35.126" style="fill:#89c4f4;"/><path d="M168.244,99.576c0.997,0 1.806,0.81 1.806,1.806l0,8.675c0,0.058 -0.003,0.115 -0.008,0.171c-0.002,0.096 -0.004,0.192 -0.008,0.289c-0.016,0.459 -0.054,0.917 -0.113,1.373c-0.063,0.488 -0.15,0.973 -0.263,1.452c-0.099,0.425 -0.218,0.845 -0.358,1.258c-0.109,0.324 -0.23,0.643 -0.364,0.958c-0.116,0.27 -0.24,0.536 -0.375,0.798c-0.841,1.638 -2.074,3.113 -3.675,4.052c-0.93,0.545 -1.971,0.895 -3.046,0.989c-0.163,0.014 -0.326,0.023 -0.489,0.026c-0.121,0.002 -0.242,0.001 -0.363,-0.014c-0.313,-0.039 -0.615,-0.155 -0.873,-0.336c-0.212,-0.148 -0.393,-0.338 -0.53,-0.557c-0.23,-0.364 -0.333,-0.803 -0.289,-1.232c0.02,-0.199 0.072,-0.395 0.152,-0.579c0.069,-0.158 0.159,-0.306 0.266,-0.44c0.126,-0.156 0.276,-0.293 0.443,-0.404c0.216,-0.142 0.459,-0.24 0.712,-0.288c0.085,-0.016 0.17,-0.024 0.256,-0.031c0.089,-0.003 0.178,-0.003 0.267,-0.007c0.179,-0.011 0.357,-0.035 0.533,-0.075c0.877,-0.202 1.629,-0.765 2.213,-1.433c0.098,-0.113 0.193,-0.23 0.283,-0.349c0.111,-0.146 0.215,-0.297 0.314,-0.451c0.119,-0.185 0.229,-0.376 0.331,-0.57c0.135,-0.256 0.257,-0.52 0.365,-0.788c0.126,-0.312 0.234,-0.631 0.326,-0.954c0.099,-0.346 0.179,-0.697 0.24,-1.052l-6.428,0c-0.997,0 -1.806,-0.809 -1.806,-1.806l0,-8.675c0,-0.996 0.809,-1.806 1.806,-1.806l8.675,0Z" style="fill:#fff;"/><path d="M184.431,99.576c0.997,0 1.806,0.81 1.806,1.806l0,8.675c0,0.058 -0.003,0.115 -0.008,0.171c-0.002,0.096 -0.004,0.192 -0.008,0.289c-0.017,0.459 -0.054,0.917 -0.113,1.373c-0.063,0.488 -0.15,0.973 -0.263,1.452c-0.099,0.425 -0.219,0.845 -0.358,1.258c-0.109,0.324 -0.231,0.643 -0.365,0.958c-0.115,0.27 -0.24,0.536 -0.374,0.798c-0.841,1.638 -2.075,3.113 -3.676,4.052c-0.929,0.545 -1.971,0.895 -3.046,0.989c-0.162,0.014 -0.325,0.023 -0.488,0.026c-0.121,0.002 -0.242,0.001 -0.363,-0.014c-0.313,-0.039 -0.615,-0.155 -0.874,-0.336c-0.211,-0.148 -0.392,-0.338 -0.53,-0.557c-0.229,-0.364 -0.332,-0.803 -0.288,-1.232c0.02,-0.199 0.072,-0.395 0.152,-0.579c0.069,-0.158 0.158,-0.306 0.266,-0.44c0.126,-0.156 0.276,-0.293 0.443,-0.404c0.215,-0.142 0.459,-0.24 0.712,-0.288c0.085,-0.016 0.17,-0.024 0.256,-0.031c0.089,-0.003 0.178,-0.003 0.266,-0.007c0.18,-0.011 0.358,-0.035 0.533,-0.075c0.877,-0.202 1.629,-0.765 2.213,-1.433c0.099,-0.113 0.194,-0.23 0.284,-0.349c0.111,-0.146 0.215,-0.297 0.314,-0.451c0.119,-0.185 0.229,-0.376 0.331,-0.57c0.135,-0.256 0.256,-0.52 0.365,-0.788c0.125,-0.312 0.234,-0.631 0.326,-0.954c0.099,-0.346 0.178,-0.697 0.24,-1.052l-6.428,0c-0.997,0 -1.806,-0.809 -1.806,-1.806l0,-8.675c0,-0.996 0.809,-1.806 1.806,-1.806l8.675,0Z" style="fill:#fff;"/></g><rect id="Artboard11" x="0" y="0" width="343.931" height="220.339" style="fill:none;"/><g id="g36452"><rect id="rect36472" x="0" y="0" width="344" height="221" style="fill:#dcc6e0;"/><circle cx="172" cy="110.5" r="35.126" style="fill:#89c4f4;"/><path d="M168.244,99.576c0.997,0 1.806,0.81 1.806,1.806l0,8.675c0,0.058 -0.003,0.115 -0.008,0.171c-0.002,0.096 -0.004,0.192 -0.008,0.289c-0.016,0.459 -0.054,0.917 -0.113,1.373c-0.063,0.488 -0.15,0.973 -0.263,1.452c-0.099,0.425 -0.218,0.845 -0.358,1.258c-0.109,0.324 -0.23,0.643 -0.364,0.958c-0.116,0.27 -0.24,0.536 -0.375,0.798c-0.841,1.638 -2.074,3.113 -3.675,4.052c-0.93,0.545 -1.971,0.895 -3.046,0.989c-0.163,0.014 -0.326,0.023 -0.489,0.026c-0.121,0.002 -0.242,0.001 -0.363,-0.014c-0.313,-0.039 -0.615,-0.155 -0.873,-0.336c-0.212,-0.148 -0.393,-0.338 -0.53,-0.557c-0.23,-0.364 -0.333,-0.803 -0.289,-1.232c0.02,-0.199 0.072,-0.395 0.152,-0.579c0.069,-0.158 0.159,-0.306 0.266,-0.44c0.126,-0.156 0.276,-0.293 0.443,-0.404c0.216,-0.142 0.459,-0.24 0.712,-0.288c0.085,-0.016 0.17,-0.024 0.256,-0.031c0.089,-0.003 0.178,-0.003 0.267,-0.007c0.179,-0.011 0.357,-0.035 0.533,-0.075c0.877,-0.202 1.629,-0.765 2.213,-1.433c0.098,-0.113 0.193,-0.23 0.283,-0.349c0.111,-0.146 0.215,-0.297 0.314,-0.451c0.119,-0.185 0.229,-0.376 0.331,-0.57c0.135,-0.256 0.257,-0.52 0.365,-0.788c0.126,-0.312 0.234,-0.631 0.326,-0.954c0.099,-0.346 0.179,-0.697 0.24,-1.052l-6.428,0c-0.997,0 -1.806,-0.809 -1.806,-1.806l0,-8.675c0,-0.996 0.809,-1.806 1.806,-1.806l8.675,0Z" style="fill:#fff;"/><path d="M184.431,99.576c0.997,0 1.806,0.81 1.806,1.806l0,8.675c0,0.058 -0.003,0.115 -0.008,0.171c-0.002,0.096 -0.004,0.192 -0.008,0.289c-0.017,0.459 -0.054,0.917 -0.113,1.373c-0.063,0.488 -0.15,0.973 -0.263,1.452c-0.099,0.425 -0.219,0.845 -0.358,1.258c-0.109,0.324 -0.231,0.643 -0.365,0.958c-0.115,0.27 -0.24,0.536 -0.374,0.798c-0.841,1.638 -2.075,3.113 -3.676,4.052c-0.929,0.545 -1.971,0.895 -3.046,0.989c-0.162,0.014 -0.325,0.023 -0.488,0.026c-0.121,0.002 -0.242,0.001 -0.363,-0.014c-0.313,-0.039 -0.615,-0.155 -0.874,-0.336c-0.211,-0.148 -0.392,-0.338 -0.53,-0.557c-0.229,-0.364 -0.332,-0.803 -0.288,-1.232c0.02,-0.199 0.072,-0.395 0.152,-0.579c0.069,-0.158 0.158,-0.306 0.266,-0.44c0.126,-0.156 0.276,-0.293 0.443,-0.404c0.215,-0.142 0.459,-0.24 0.712,-0.288c0.085,-0.016 0.17,-0.024 0.256,-0.031c0.089,-0.003 0.178,-0.003 0.266,-0.007c0.18,-0.011 0.358,-0.035 0.533,-0.075c0.877,-0.202 1.629,-0.765 2.213,-1.433c0.099,-0.113 0.194,-0.23 0.284,-0.349c0.111,-0.146 0.215,-0.297 0.314,-0.451c0.119,-0.185 0.229,-0.376 0.331,-0.57c0.135,-0.256 0.256,-0.52 0.365,-0.788c0.125,-0.312 0.234,-0.631 0.326,-0.954c0.099,-0.346 0.178,-0.697 0.24,-1.052l-6.428,0c-0.997,0 -1.806,-0.809 -1.806,-1.806l0,-8.675c0,-0.996 0.809,-1.806 1.806,-1.806l8.675,0Z" style="fill:#fff;"/></g><rect id="Artboard12" x="0" y="0" width="343.931" height="220.339" style="fill:none;"/><g id="g36453"><rect id="rect36473" x="0" y="0" width="344" height="221" style="fill:#dcc6e0;"/><circle cx="172" cy="110.5" r="35.126" style="fill:#89c4f4;"/><path d="M168.244,99.576c0.997,0 1.806,0.81 1.806,1.806l0,8.675c0,0.058 -0.003,0.115 -0.008,0.171c-0.002,0.096 -0.004,0.192 -0.008,0.289c-0.016,0.459 -0.054,0.917 -0.113,1.373c-0.063,0.488 -0.15,0.973 -0.263,1.452c-0.099,0.425 -0.218,0.845 -0.358,1.258c-0.109,0.324 -0.23,0.643 -0.364,0.958c-0.116,0.27 -0.24,0.536 -0.375,0.798c-0.841,1.638 -2.074,3.113 -3.675,4.052c-0.93,0.545 -1.971,0.895 -3.046,0.989c-0.163,0.014 -0.326,0.023 -0.489,0.026c-0.121,0.002 -0.242,0.001 -0.363,-0.014c-0.313,-0.039 -0.615,-0.155 -0.873,-0.336c-0.212,-0.148 -0.393,-0.338 -0.53,-0.557c-0.23,-0.364 -0.333,-0.803 -0.289,-1.232c0.02,-0.199 0.072,-0.395 0.152,-0.579c0.069,-0.158 0.159,-0.306 0.266,-0.44c0.126,-0.156 0.276,-0.293 0.443,-0.404c0.216,-0.142 0.459,-0.24 0.712,-0.288c0.085,-0.016 0.17,-0.024 0.256,-0.031c0.089,-0.003 0.178,-0.003 0.267,-0.007c0.179,-0.011 0.357,-0.035 0.533,-0.075c0.877,-0.202 1.629,-0.765 2.213,-1.433c0.098,-0.113 0.193,-0.23 0.283,-0.349c0.111,-0.146 0.215,-0.297 0.314,-0.451c0.119,-0.185 0.229,-0.376 0.331,-0.57c0.135,-0.256 0.257,-0.52 0.365,-0.788c0.126,-0.312 0.234,-0.631 0.326,-0.954c0.099,-0.346 0.179,-0.697 0.24,-1.052l-6.428,0c-0.997,0 -1.806,-0.809 -1.806,-1.806l0,-8.675c0,-0.996 0.809,-1.806 1.806,-1.806l8.675,0Z" style="fill:#fff;"/><path d="M184.431,99.576c0.997,0 1.806,0.81 1.806,1.806l0,8.675c0,0.058 -0.003,0.115 -0.008,0.171c-0.002,0.096 -0.004,0.192 -0.008,0.289c-0.017,0.459 -0.054,0.917 -0.113,1.373c-0.063,0.488 -0.15,0.973 -0.263,1.452c-0.099,0.425 -0.219,0.845 -0.358,1.258c-0.109,0.324 -0.231,0.643 -0.365,0.958c-0.115,0.27 -0.24,0.536 -0.374,0.798c-0.841,1.638 -2.075,3.113 -3.676,4.052c-0.929,0.545 -1.971,0.895 -3.046,0.989c-0.162,0.014 -0.325,0.023 -0.488,0.026c-0.121,0.002 -0.242,0.001 -0.363,-0.014c-0.313,-0.039 -0.615,-0.155 -0.874,-0.336c-0.211,-0.148 -0.392,-0.338 -0.53,-0.557c-0.229,-0.364 -0.332,-0.803 -0.288,-1.232c0.02,-0.199 0.072,-0.395 0.152,-0.579c0.069,-0.158 0.158,-0.306 0.266,-0.44c0.126,-0.156 0.276,-0.293 0.443,-0.404c0.215,-0.142 0.459,-0.24 0.712,-0.288c0.085,-0.016 0.17,-0.024 0.256,-0.031c0.089,-0.003 0.178,-0.003 0.266,-0.007c0.18,-0.011 0.358,-0.035 0.533,-0.075c0.877,-0.202 1.629,-0.765 2.213,-1.433c0.099,-0.113 0.194,-0.23 0.284,-0.349c0.111,-0.146 0.215,-0.297 0.314,-0.451c0.119,-0.185 0.229,-0.376 0.331,-0.57c0.135,-0.256 0.256,-0.52 0.365,-0.788c0.125,-0.312 0.234,-0.631 0.326,-0.954c0.099,-0.346 0.178,-0.697 0.24,-1.052l-6.428,0c-0.997,0 -1.806,-0.809 -1.806,-1.806l0,-8.675c0,-0.996 0.809,-1.806 1.806,-1.806l8.675,0Z" style="fill:#fff;"/></g><rect id="Artboard13" x="0" y="0" width="343.931" height="220.339" style="fill:none;"/><g id="g36454"><rect id="rect36474" x="0" y="0" width="344" height="221" style="fill:#dcc6e0;"/><circle cx="172" cy="110.5" r="35.126" style="fill:#89c4f4;"/><path d="M168.244,99.576c0.997,0 1.806,0.81 1.806,1.806l0,8.675c0,0.058 -0.003,0.115 -0.008,0.171c-0.002,0.096 -0.004,0.192 -0.008,0.289c-0.016,0.459 -0.054,0.917 -0.113,1.373c-0.063,0.488 -0.15,0.973 -0.263,1.452c-0.099,0.425 -0.218,0.845 -0.358,1.258c-0.109,0.324 -0.23,0.643 -0.364,0.958c-0.116,0.27 -0.24,0.536 -0.375,0.798c-0.841,1.638 -2.074,3.113 -3.675,4.052c-0.93,0.545 -1.971,0.895 -3.046,0.989c-0.163,0.014 -0.326,0.023 -0.489,0.026c-0.121,0.002 -0.242,0.001 -0.363,-0.014c-0.313,-0.039 -0.615,-0.155 -0.873,-0.336c-0.212,-0.148 -0.393,-0.338 -0.53,-0.557c-0.23,-0.364 -0.333,-0.803 -0.289,-1.232c0.02,-0.199 0.072,-0.395 0.152,-0.579c0.069,-0.158 0.159,-0.306 0.266,-0.44c0.126,-0.156 0.276,-0.293 0.443,-0.404c0.216,-0.142 0.459,-0.24 0.712,-0.288c0.085,-0.016 0.17,-0.024 0.256,-0.031c0.089,-0.003 0.178,-0.003 0.267,-0.007c0.179,-0.011 0.357,-0.035 0.533,-0.075c0.877,-0.202 1.629,-0.765 2.213,-1.433c0.098,-0.113 0.193,-0.23 0.283,-0.349c0.111,-0.146 0.215,-0.297 0.314,-0.451c0.119,-0.185 0.229,-0.376 0.331,-0.57c0.135,-0.256 0.257,-0.52 0.365,-0.788c0.126,-0.312 0.234,-0.631 0.326,-0.954c0.099,-0.346 0.179,-0.697 0.24,-1.052l-6.428,0c-0.997,0 -1.806,-0.809 -1.806,-1.806l0,-8.675c0,-0.996 0.809,-1.806 1.806,-1.806l8.675,0Z" style="fill:#fff;"/><path d="M184.431,99.576c0.997,0 1.806,0.81 1.806,1.806l0,8.675c0,0.058 -0.003,0.115 -0.008,0.171c-0.002,0.096 -0.004,0.192 -0.008,0.289c-0.017,0.459 -0.054,0.917 -0.113,1.373c-0.063,0.488 -0.15,0.973 -0.263,1.452c-0.099,0.425 -0.219,0.845 -0.358,1.258c-0.109,0.324 -0.231,0.643 -0.365,0.958c-0.115,0.27 -0.24,0.536 -0.374,0.798c-0.841,1.638 -2.075,3.113 -3.676,4.052c-0.929,0.545 -1.971,0.895 -3.046,0.989c-0.162,0.014 -0.325,0.023 -0.488,0.026c-0.121,0.002 -0.242,0.001 -0.363,-0.014c-0.313,-0.039 -0.615,-0.155 -0.874,-0.336c-0.211,-0.148 -0.392,-0.338 -0.53,-0.557c-0.229,-0.364 -0.332,-0.803 -0.288,-1.232c0.02,-0.199 0.072,-0.395 0.152,-0.579c0.069,-0.158 0.158,-0.306 0.266,-0.44c0.126,-0.156 0.276,-0.293 0.443,-0.404c0.215,-0.142 0.459,-0.24 0.712,-0.288c0.085,-0.016 0.17,-0.024 0.256,-0.031c0.089,-0.003 0.178,-0.003 0.266,-0.007c0.18,-0.011 0.358,-0.035 0.533,-0.075c0.877,-0.202 1.629,-0.765 2.213,-1.433c0.099,-0.113 0.194,-0.23 0.284,-0.349c0.111,-0.146 0.215,-0.297 0.314,-0.451c0.119,-0.185 0.229,-0.376 0.331,-0.57c0.135,-0.256 0.256,-0.52 0.365,-0.788c0.125,-0.312 0.234,-0.631 0.326,-0.954c0.099,-0.346 0.178,-0.697 0.24,-1.052l-6.428,0c-0.997,0 -1.806,-0.809 -1.806,-1.806l0,-8.675c0,-0.996 0.809,-1.806 1.806,-1.806l8.675,0Z" style="fill:#fff;"/></g><rect id="Artboard14" x="0" y="0" width="343.931" height="220.339" style="fill:none;"/></svg>