<?xml version="1.0" encoding="UTF-8" standalone="no"?><!DOCTYPE svg PUBLIC "-//W3C//DTD SVG 1.1//EN" "http://www.w3.org/Graphics/SVG/1.1/DTD/svg11.dtd"><svg width="100%" height="100%" viewBox="0 0 344 221" version="1.1" xmlns="http://www.w3.org/2000/svg" xmlns:xlink="http://www.w3.org/1999/xlink" xml:space="preserve" style="fill-rule:evenodd;clip-rule:evenodd;stroke-linecap:round;stroke-linejoin:round;stroke-miterlimit:1.5;"><rect id="Artboard1" x="0" y="0" width="343.931" height="220.339" style="fill:none;"/><g id="g4139"><rect id="rect4141" x="-2.269" y="-1.378" width="348.274" height="223.799" style="fill:#89c4f4;"/><g><g><path d="M211.639,77.968c0,-3.907 -3.173,-7.079 -7.08,-7.079l-65.636,0c-3.907,0 -7.079,3.172 -7.079,7.079l0,65.636c0,3.908 3.172,7.08 7.079,7.08l65.636,0c3.907,0 7.08,-3.172 7.08,-7.08l0,-65.636Z" style="fill:#4c6680;"/><path d="M131.844,82.478l79.795,0" style="fill:#4c6680;"/></g><path d="M187.498,89.127c0,-0.388 -0.315,-0.703 -0.703,-0.703l-48.912,0c-0.388,0 -0.703,0.315 -0.703,0.703l0,1.405c0,0.388 0.315,0.703 0.703,0.703l48.912,0c0.388,0 0.703,-0.315 0.703,-0.703l0,-1.405Z" style="fill:#2ecc71;"/><path d="M195.109,95.289c0,-0.388 -0.314,-0.703 -0.702,-0.703l-50.118,0c-0.388,0 -0.703,0.315 -0.703,0.703l0,1.405c0,0.388 0.315,0.703 0.703,0.703l50.118,0c0.388,0 0.702,-0.315 0.702,-0.703l0,-1.405Z" style="fill:#2ecc71;"/><path d="M156.923,101.45c0,-0.388 -0.315,-0.702 -0.703,-0.702l-11.931,0c-0.388,0 -0.703,0.314 -0.703,0.702l0,1.406c0,0.388 0.315,0.702 0.703,0.702l11.931,0c0.388,0 0.703,-0.314 0.703,-0.702l0,-1.406Z" style="fill:#f1c40f;"/><path d="M160.077,107.612c0,-0.388 -0.315,-0.703 -0.703,-0.703l-21.491,0c-0.388,0 -0.703,0.315 -0.703,0.703l0,1.405c0,0.388 0.315,0.703 0.703,0.703l21.491,0c0.388,0 0.703,-0.315 0.703,-0.703l0,-1.405Z" style="fill:#2ecc71;"/><path d="M173.076,101.45c0,-0.388 -0.315,-0.702 -0.703,-0.702l-11.931,0c-0.388,0 -0.703,0.314 -0.703,0.702l0,1.406c0,0.388 0.315,0.702 0.703,0.702l11.931,0c0.388,0 0.703,-0.314 0.703,-0.702l0,-1.406Z" style="fill:#2ecc71;"/><path d="M167.238,116.854c0,-0.387 -0.315,-0.702 -0.703,-0.702l-28.652,0c-0.388,0 -0.703,0.315 -0.703,0.702l0,1.406c0,0.388 0.315,0.703 0.703,0.703l28.652,0c0.388,0 0.703,-0.315 0.703,-0.703l0,-1.406Z" style="fill:#2ecc71;"/><path d="M170.664,123.016c0,-0.388 -0.315,-0.703 -0.703,-0.703l-25.672,0c-0.388,0 -0.703,0.315 -0.703,0.703l0,1.406c0,0.387 0.315,0.702 0.703,0.702l25.672,0c0.388,0 0.703,-0.315 0.703,-0.702l0,-1.406Z" style="fill:#2ecc71;"/><path d="M200.16,123.016c0,-0.388 -0.315,-0.703 -0.702,-0.703l-25.672,0c-0.388,0 -0.703,0.315 -0.703,0.703l0,1.406c0,0.387 0.315,0.702 0.703,0.702l25.672,0c0.387,0 0.702,-0.315 0.702,-0.702l0,-1.406Z" style="fill:#f1c40f;"/><path d="M156.923,129.178c0,-0.388 -0.315,-0.703 -0.703,-0.703l-11.931,0c-0.388,0 -0.703,0.315 -0.703,0.703l0,1.405c0,0.388 0.315,0.703 0.703,0.703l11.931,0c0.388,0 0.703,-0.315 0.703,-0.703l0,-1.405Z" style="fill:#2ecc71;"/><path d="M166.483,135.34c0,-0.388 -0.315,-0.703 -0.703,-0.703l-21.491,0c-0.388,0 -0.703,0.315 -0.703,0.703l0,1.405c0,0.388 0.315,0.703 0.703,0.703l21.491,0c0.388,0 0.703,-0.315 0.703,-0.703l0,-1.405Z" style="fill:#fff;"/><path d="M160.077,141.501c0,-0.388 -0.315,-0.703 -0.703,-0.703l-21.491,0c-0.388,0 -0.703,0.315 -0.703,0.703l0,1.406c0,0.387 0.315,0.702 0.703,0.702l21.491,0c0.388,0 0.703,-0.315 0.703,-0.702l0,-1.406Z" style="fill:#2ecc71;"/><path d="M173.076,129.178c0,-0.388 -0.315,-0.703 -0.703,-0.703l-11.931,0c-0.388,0 -0.703,0.315 -0.703,0.703l0,1.405c0,0.388 0.315,0.703 0.703,0.703l11.931,0c0.388,0 0.703,-0.315 0.703,-0.703l0,-1.405Z" style="fill:#2ecc71;"/><path d="M204.724,70.359c3.908,0 7.079,3.172 7.079,7.079l0,5.243l-79.795,0l0,-5.243c0,-3.907 3.172,-7.079 7.08,-7.079l65.636,0Z" style="fill:#dfdfdf;"/><circle cx="138.554" cy="76.434" r="1.581" style="fill:#e74c3c;"/><circle cx="144.783" cy="76.434" r="1.581" style="fill:#f1c40f;"/><circle cx="151.012" cy="76.434" r="1.581" style="fill:#2ecc71;"/><g><path d="M211.893,76.107c0,-3.082 -2.503,-5.585 -5.586,-5.585l-68.624,0c-3.083,0 -5.586,2.503 -5.586,5.585l0,68.624c0,3.083 2.503,5.586 5.586,5.586l68.624,0c3.083,0 5.586,-2.503 5.586,-5.586l0,-68.624Z" style="fill:none;stroke:#424242;stroke-width:2.5px;"/><path d="M132.097,82.111l79.796,0" style="fill:none;stroke:#424242;stroke-width:2.5px;"/></g></g></g></svg>