<?xml version="1.0" encoding="UTF-8" standalone="no"?><!DOCTYPE svg PUBLIC "-//W3C//DTD SVG 1.1//EN" "http://www.w3.org/Graphics/SVG/1.1/DTD/svg11.dtd"><svg width="100%" height="100%" viewBox="0 0 344 221" version="1.1" xmlns="http://www.w3.org/2000/svg" xmlns:xlink="http://www.w3.org/1999/xlink" xml:space="preserve" style="fill-rule:evenodd;clip-rule:evenodd;stroke-linecap:round;stroke-linejoin:round;stroke-miterlimit:1.5;"><rect id="Artboard1" x="0" y="0" width="343.931" height="220.339" style="fill:none;"/><g><rect x="-0.396" y="-0.125" width="344.73" height="221.634" style="fill:#ffdc90;"/><g><rect x="132.925" y="153.516" width="13.505" height="2.47" style="fill:none;stroke:#424242;stroke-width:2.5px;"/><rect x="196.225" y="153.516" width="13.505" height="2.47" style="fill:none;stroke:#424242;stroke-width:2.5px;"/><path d="M131.748,69.771l5.816,14.798l32.079,-19.171" style="fill:none;stroke:#424242;stroke-width:3px;"/><path d="M224.025,88.012c0,-1.518 -1.232,-2.75 -2.749,-2.75l-98.613,0c-1.518,0 -2.75,1.232 -2.75,2.75l0,63.233c0,1.518 1.232,2.75 2.75,2.75l98.613,0c1.517,0 2.749,-1.232 2.749,-2.75l0,-63.233Z" style="fill:#82bbc2;stroke:#424242;stroke-width:3px;"/><path d="M195.154,88.012c0,-1.518 -1.232,-2.75 -2.749,-2.75l-69.742,0c-1.518,0 -2.75,1.232 -2.75,2.75l0,63.233c0,1.518 1.232,2.75 2.75,2.75l69.742,0c1.517,0 2.749,-1.232 2.749,-2.75l0,-63.233Z" style="fill:#74e1ff;stroke:#424242;stroke-width:3px;"/><g><path d="M207.434,117.114l5.176,0" style="fill:none;stroke:#424242;stroke-width:4px;"/><path d="M207.434,108.381l5.176,0" style="fill:none;stroke:#424242;stroke-width:4px;"/><path d="M207.54,100.049l5.176,0" style="fill:none;stroke:#424242;stroke-width:4px;"/></g><circle cx="210.087" cy="135.647" r="6.69" style="fill:#f1c40f;stroke:#424242;stroke-width:2.5px;"/><g><path d="M148.559,120.243l9.969,-9.969" style="fill:none;stroke:#fff;stroke-width:2px;"/><path d="M145.718,131.085l23.652,-23.652" style="fill:none;stroke:#fff;stroke-width:2px;"/><path d="M156.559,128.243l9.969,-9.969" style="fill:none;stroke:#fff;stroke-width:2px;"/></g></g></g></svg>