<?xml version="1.0" encoding="UTF-8" standalone="no"?><!DOCTYPE svg PUBLIC "-//W3C//DTD SVG 1.1//EN" "http://www.w3.org/Graphics/SVG/1.1/DTD/svg11.dtd"><svg width="100%" height="100%" viewBox="0 0 344 221" version="1.1" xmlns="http://www.w3.org/2000/svg" xmlns:xlink="http://www.w3.org/1999/xlink" xml:space="preserve" style="fill-rule:evenodd;clip-rule:evenodd;stroke-linejoin:round;stroke-miterlimit:1.41421;"><rect id="Artboard1" x="0" y="0" width="343.931" height="220.339" style="fill:none;"/><g><rect x="-9.41" y="-1.718" width="362.532" height="223.799" style="fill:#89c4f4;"/><g><rect x="113.473" y="87.675" width="116.765" height="63.839" style="fill:#f2784b;"/><circle cx="135.861" cy="128.093" r="15.238" style="fill:#faba45;"/><circle cx="135.861" cy="128.093" r="4.364" style="fill:#e95b2d;"/><circle cx="207.851" cy="128.093" r="15.238" style="fill:#faba45;"/><circle cx="207.851" cy="128.093" r="4.364" style="fill:#e95b2d;"/><rect x="158.272" y="126.353" width="27.167" height="25.16" style="fill:#faba45;"/><rect x="144.14" y="68.849" width="55.432" height="6.116" style="fill:#faba45;"/><path d="M135.861,111.068c-9.388,0 -17.026,7.637 -17.026,17.025c0,9.388 7.638,17.026 17.026,17.026c9.388,0 17.025,-7.638 17.025,-17.026c0.001,-9.388 -7.637,-17.025 -17.025,-17.025l0,0Zm0,30.476c-7.417,0 -13.451,-6.034 -13.451,-13.451c0,-7.417 6.034,-13.451 13.451,-13.451c7.417,0 13.451,6.034 13.451,13.451c0,7.417 -6.034,13.451 -13.451,13.451Z" style="fill:#424242;fill-rule:nonzero;"/><path d="M135.861,121.942c-3.392,0 -6.151,2.759 -6.151,6.151c0,3.392 2.759,6.152 6.151,6.152c3.391,0 6.151,-2.76 6.151,-6.152c0,-3.392 -2.76,-6.151 -6.151,-6.151Zm0,8.728c-1.421,0 -2.577,-1.156 -2.577,-2.577c0,-1.421 1.156,-2.577 2.577,-2.577c1.421,0 2.576,1.156 2.576,2.577c0,1.421 -1.155,2.577 -2.576,2.577Z" style="fill:#424242;fill-rule:nonzero;"/><path d="M207.851,145.119c9.388,0 17.025,-7.638 17.025,-17.026c0,-9.388 -7.637,-17.025 -17.025,-17.025c-9.388,0 -17.026,7.637 -17.026,17.025c0,9.388 7.638,17.026 17.026,17.026Zm0,-30.477c7.417,0 13.451,6.034 13.451,13.451c0,7.417 -6.034,13.451 -13.451,13.451c-7.417,0 -13.451,-6.034 -13.451,-13.451c0,-7.417 6.034,-13.451 13.451,-13.451Z" style="fill:#424242;fill-rule:nonzero;"/><path d="M207.851,134.244c3.391,0 6.151,-2.759 6.151,-6.151c0,-3.392 -2.759,-6.151 -6.151,-6.151c-3.392,0 -6.151,2.759 -6.151,6.151c0,3.392 2.759,6.151 6.151,6.151Zm0,-8.727c1.42,0 2.576,1.155 2.576,2.576c0,1.421 -1.156,2.577 -2.576,2.577c-1.421,0 -2.577,-1.156 -2.577,-2.577c0,-1.421 1.156,-2.576 2.577,-2.576Z" style="fill:#424242;fill-rule:nonzero;"/><rect x="163.118" y="132.185" width="17.476" height="3.574" style="fill:#424242;"/><path d="M216.699,85.888l0,-4.647c0,-7.818 -6.36,-14.179 -14.178,-14.179l-1.162,0l-59.006,0l-1.162,0c-7.818,0 -14.178,6.361 -14.178,14.179l0,4.647l-15.327,0l0,67.413l120.34,0l0,-46.841l0,-20.572l-15.327,0l0,0Zm-18.914,-15.251l0,2.542l-51.858,0l0,-2.542l51.858,0Zm-67.198,10.604c0,-5.847 4.757,-10.604 10.604,-10.604l1.162,0l0,6.116l59.006,0l0,-6.116l1.162,0c5.847,0 10.604,4.757 10.604,10.604l0,4.647l-82.538,0l0,-4.647Zm-15.326,68.485l0,-43.266l9.056,0l0,-3.574l-9.056,0l0,-13.424l113.19,0l0,13.424l-99.368,0l0,3.574l27.402,0l0,43.266l-41.224,0l0,0Zm54.808,-6.347l0,6.347l-3.218,0l0,-6.347l3.218,0Zm3.574,0l3.218,0l0,6.347l-3.218,0l0,-6.347Zm-13.583,-3.575l0,-11.663l23.592,0l0,11.663l-23.592,0Zm0,-15.238l0,-18.105l23.592,0l0,18.105l-23.592,0Zm0,18.813l3.217,0l0,6.347l-3.217,0l0,-6.347Zm20.375,6.347l0,-6.347l3.217,0l0,6.347l-3.217,0Zm48.016,0l-41.224,0l0,-23.373l0,-1.787l0,-18.105l41.224,0l0,43.265Z" style="fill:#424242;fill-rule:nonzero;"/></g></g></svg>