<?xml version="1.0" encoding="UTF-8" standalone="no"?><!DOCTYPE svg PUBLIC "-//W3C//DTD SVG 1.1//EN" "http://www.w3.org/Graphics/SVG/1.1/DTD/svg11.dtd"><svg width="100%" height="100%" viewBox="0 0 344 221" version="1.1" xmlns="http://www.w3.org/2000/svg" xmlns:xlink="http://www.w3.org/1999/xlink" xml:space="preserve" style="fill-rule:evenodd;clip-rule:evenodd;stroke-linejoin:round;stroke-miterlimit:1.41421;"><rect id="Artboard1" x="0" y="0" width="343.931" height="220.339" style="fill:none;"/><clipPath id="_clip1"><rect x="0" y="0" width="343.931" height="220.339"/></clipPath><g clip-path="url(#_clip1)"><rect x="-9.41" y="-1.718" width="362.532" height="223.799" style="fill:#c75c5c;"/><circle cx="171.856" cy="110.181" r="103.655" style="fill:#c75c5c;"/><path d="M230.162,93.985c-0.324,0 -0.648,0 -0.972,0l-110.133,-29.153c-1.62,-0.324 -2.916,-2.267 -2.268,-3.887c0.324,-1.62 2.268,-2.915 3.887,-2.267l110.134,29.153c1.62,0.324 2.915,2.267 2.268,3.887c-0.324,1.295 -1.62,2.267 -2.916,2.267Z" style="fill:#231f20;fill-opacity:0.2;fill-rule:nonzero;"/><path d="M120.857,51.983l110.134,29.153l0.782,0.321l0.673,0.513l0.517,0.669l0.326,0.781l0.112,0.838l-0.107,0.838l-0.322,0.783l-0.512,0.672l-0.67,0.517l-0.78,0.326l-0.838,0.113l-0.839,-0.108l-110.133,-29.153l-0.783,-0.321l-0.672,-0.513l-0.517,-0.67l-0.326,-0.78l-0.113,-0.838l0.108,-0.839l0.321,-0.782l0.513,-0.672l0.669,-0.517l0.781,-0.326l0.838,-0.113l0.838,0.108Z" style="fill:#e0e0d1;"/><path d="M236.641,158.77c0,3.563 -2.916,6.478 -6.479,6.478l-116.612,0c-3.563,0 -6.479,-2.915 -6.479,-6.478l0,-64.785c0,-3.563 2.916,-6.478 6.479,-6.478l116.612,0c3.563,0 6.479,2.915 6.479,6.478l0,64.785Z" style="fill:#231f20;fill-opacity:0.2;fill-rule:nonzero;"/><path d="M236.641,152.291c0,3.563 -2.916,6.479 -6.479,6.479l-116.612,0c-3.563,0 -6.479,-2.916 -6.479,-6.479l0,-64.784c0,-3.563 2.916,-6.479 6.479,-6.479l116.612,0c3.563,0 6.479,2.916 6.479,6.479l0,64.784Z" style="fill:#f5cf87;fill-rule:nonzero;"/><circle cx="145.942" cy="119.899" r="25.914" style="fill:#4f5d73;"/><path d="M145.942,100.464c13.281,0 23.971,10.041 25.59,22.674c0,-0.972 0.324,-2.267 0.324,-3.239c0,-14.253 -11.661,-25.914 -25.914,-25.914c-14.252,0 -25.914,11.661 -25.914,25.914c0,0.972 0,2.267 0.324,3.239c1.62,-12.633 12.309,-22.674 25.59,-22.674Z" style="fill:#231f20;fill-opacity:0.2;fill-rule:nonzero;"/><circle cx="186.433" cy="144.193" r="4.859" style="fill:#231f20;fill-opacity:0.2;"/><circle cx="202.629" cy="144.193" r="4.859" style="fill:#231f20;fill-opacity:0.2;"/><circle cx="218.825" cy="144.193" r="4.859" style="fill:#231f20;fill-opacity:0.2;"/><circle cx="186.433" cy="140.954" r="4.859" style="fill:#4f5d73;"/><circle cx="202.629" cy="140.954" r="4.859" style="fill:#4f5d73;"/><circle cx="218.825" cy="140.954" r="4.859" style="fill:#4f5d73;"/><path d="M223.684,119.899c0,3.563 -2.916,6.478 -6.479,6.478l-29.153,0c-3.563,0 -6.478,-2.915 -6.478,-6.478l0,-16.196c0,-3.563 2.915,-6.479 6.478,-6.479l29.153,0c3.563,0 6.479,2.916 6.479,6.479l0,16.196Z" style="fill:#fff;fill-rule:nonzero;"/><path d="M217.205,97.224l-29.153,0c-3.563,0 -6.478,2.916 -6.478,6.479l0,6.478c0,-3.563 2.915,-6.478 6.478,-6.478l29.153,0c3.563,0 6.479,2.915 6.479,6.478l0,-6.478c0,-3.563 -2.916,-6.479 -6.479,-6.479Z" style="fill:#231f20;fill-opacity:0.2;fill-rule:nonzero;"/></g></svg>