<?xml version="1.0" encoding="UTF-8" standalone="no"?><!DOCTYPE svg PUBLIC "-//W3C//DTD SVG 1.1//EN" "http://www.w3.org/Graphics/SVG/1.1/DTD/svg11.dtd"><svg width="100%" height="100%" viewBox="0 0 344 221" version="1.1" xmlns="http://www.w3.org/2000/svg" xmlns:xlink="http://www.w3.org/1999/xlink" xml:space="preserve" style="fill-rule:evenodd;clip-rule:evenodd;stroke-linecap:round;stroke-linejoin:round;stroke-miterlimit:1.5;"><rect id="Artboard1" x="0" y="0" width="343.931" height="220.339" style="fill:none;"/><g><rect x="0" y="0" width="344" height="221" style="fill:#786fa6;"/><g><path d="M214.634,84.451c0,-1.366 -1.109,-2.475 -2.475,-2.475l-80.318,0c-1.366,0 -2.475,1.109 -2.475,2.475l0,52.098c0,1.366 1.109,2.475 2.475,2.475l80.318,0c1.366,0 2.475,-1.109 2.475,-2.475l0,-52.098l0,0Z" style="fill:#82bbc2;"/><path d="M133.08,135.037l77.84,0" style="fill:none;stroke:#acd2d6;stroke-width:2px;"/><path d="M133.08,135.037l25.996,0" style="fill:none;stroke:#529ea7;stroke-width:2px;"/><path d="M178.592,109.713c0.286,0.158 0.463,0.46 0.463,0.787c0,0.327 -0.177,0.629 -0.463,0.787c-2.394,1.327 -7.197,3.989 -9.533,5.284c-0.279,0.155 -0.618,0.15 -0.893,-0.012c-0.275,-0.161 -0.443,-0.456 -0.443,-0.775c0,-2.622 0,-7.946 0,-10.568c0,-0.319 0.168,-0.614 0.443,-0.775c0.275,-0.162 0.614,-0.167 0.893,-0.012c2.336,1.295 7.139,3.957 9.533,5.284l0,0Z" style="fill:#fff;"/></g></g></svg>