<svg viewBox="0 0 344 221" xmlns="http://www.w3.org/2000/svg" fill-rule="evenodd" clip-rule="evenodd" stroke-linecap="round" stroke-linejoin="round" stroke-miterlimit="1.5"><path fill="none" d="M0 0h343.931v220.339H0z"/><path fill="#89c4f4" d="M-2.269-1.378h348.274v223.799H-2.269z"/><path d="M211.639 77.968a7.083 7.083 0 0 0-7.08-7.079h-65.636a7.082 7.082 0 0 0-7.079 7.079v65.636a7.083 7.083 0 0 0 7.079 7.08h65.636a7.083 7.083 0 0 0 7.08-7.08V77.968zm-79.795 4.51h79.795" fill="#4c6680"/><path d="M187.498 89.127a.703.703 0 0 0-.703-.703h-48.912a.703.703 0 0 0-.703.703v1.405c0 .388.315.703.703.703h48.912a.703.703 0 0 0 .703-.703v-1.405zm7.611 6.162a.702.702 0 0 0-.702-.703h-50.118a.703.703 0 0 0-.703.703v1.405c0 .388.315.703.703.703h50.118a.702.702 0 0 0 .702-.703v-1.405z" fill="#2ecc71"/><path d="M156.923 101.45a.702.702 0 0 0-.703-.702h-11.931a.702.702 0 0 0-.703.702v1.406c0 .388.315.702.703.702h11.931a.702.702 0 0 0 .703-.702v-1.406z" fill="#f1c40f"/><path d="M160.077 107.612a.703.703 0 0 0-.703-.703h-21.491a.703.703 0 0 0-.703.703v1.405c0 .388.315.703.703.703h21.491a.703.703 0 0 0 .703-.703v-1.405zm12.999-6.162a.702.702 0 0 0-.703-.702h-11.931a.702.702 0 0 0-.703.702v1.406c0 .388.315.702.703.702h11.931a.702.702 0 0 0 .703-.702v-1.406zm-5.838 15.404a.703.703 0 0 0-.703-.702h-28.652a.703.703 0 0 0-.703.702v1.406c0 .388.315.703.703.703h28.652a.703.703 0 0 0 .703-.703v-1.406zm3.426 6.162a.703.703 0 0 0-.703-.703h-25.672a.703.703 0 0 0-.703.703v1.406c0 .387.315.702.703.702h25.672a.703.703 0 0 0 .703-.702v-1.406z" fill="#2ecc71"/><path d="M200.16 123.016a.703.703 0 0 0-.702-.703h-25.672a.703.703 0 0 0-.703.703v1.406c0 .387.315.702.703.702h25.672a.703.703 0 0 0 .702-.702v-1.406z" fill="#f1c40f"/><path d="M156.923 129.178a.703.703 0 0 0-.703-.703h-11.931a.703.703 0 0 0-.703.703v1.405c0 .388.315.703.703.703h11.931a.703.703 0 0 0 .703-.703v-1.405z" fill="#2ecc71"/><path d="M166.483 135.34a.703.703 0 0 0-.703-.703h-21.491a.703.703 0 0 0-.703.703v1.405c0 .388.315.703.703.703h21.491a.703.703 0 0 0 .703-.703v-1.405z" fill="#fff"/><path d="M160.077 141.501a.703.703 0 0 0-.703-.703h-21.491a.703.703 0 0 0-.703.703v1.406c0 .387.315.702.703.702h21.491a.703.703 0 0 0 .703-.702v-1.406zm12.999-12.323a.703.703 0 0 0-.703-.703h-11.931a.703.703 0 0 0-.703.703v1.405c0 .388.315.703.703.703h11.931a.703.703 0 0 0 .703-.703v-1.405z" fill="#2ecc71"/><path d="M204.724 70.359a7.082 7.082 0 0 1 7.079 7.079v5.243h-79.795v-5.243a7.083 7.083 0 0 1 7.08-7.079h65.636z" fill="#dfdfdf"/><circle cx="138.554" cy="76.434" r="1.581" fill="#e74c3c"/><circle cx="144.783" cy="76.434" r="1.581" fill="#f1c40f"/><circle cx="151.012" cy="76.434" r="1.581" fill="#2ecc71"/><path d="M211.893 76.107a5.588 5.588 0 0 0-5.586-5.585h-68.624a5.588 5.588 0 0 0-5.586 5.585v68.624a5.589 5.589 0 0 0 5.586 5.586h68.624a5.589 5.589 0 0 0 5.586-5.586V76.107zm-79.796 6.004h79.796" fill="none" stroke="#424242" stroke-width="2.5"/></svg>