<svg viewBox="0 0 198 198" xmlns="http://www.w3.org/2000/svg" fill-rule="evenodd" clip-rule="evenodd" stroke-linejoin="round" stroke-miterlimit="1.414"><path fill="none" d="M0 0h197.593v197.593H0z"/><path d="M0 98.796C0 44.269 44.269 0 98.796 0c54.528 0 98.797 44.269 98.797 98.796 0 54.528-44.269 98.797-98.797 98.797C44.269 197.593 0 153.324 0 98.796z" fill="#4eafff"/><path d="M117.696 77.662a1.581 1.581 0 0 0-2.234 0l-37.8 37.8a1.581 1.581 0 0 0 0 2.234l2.234 2.235a1.583 1.583 0 0 0 2.235 0l37.8-37.8a1.583 1.583 0 0 0 0-2.235l-2.235-2.234z" fill="#fff"/><path d="M119.931 117.696a1.581 1.581 0 0 0 0-2.234l-37.8-37.8a1.583 1.583 0 0 0-2.235 0l-2.234 2.234a1.583 1.583 0 0 0 0 2.235l37.8 37.8a1.581 1.581 0 0 0 2.234 0l2.235-2.235z" fill="#fff"/></svg>