<svg viewBox="0 0 198 198" xmlns="http://www.w3.org/2000/svg" fill-rule="evenodd" clip-rule="evenodd" stroke-linejoin="round" stroke-miterlimit="1.414"><path fill="none" d="M0 0h197.593v197.593H0z"/><path d="M0 98.796C0 44.269 44.269 0 98.796 0c54.528 0 98.797 44.269 98.797 98.796 0 54.528-44.269 98.797-98.797 98.797C44.269 197.593 0 153.324 0 98.796z" fill="#4eafff"/><path d="M136.937 125.084a1.58 1.58 0 0 0-1.58-1.58H92.552a1.58 1.58 0 0 0-1.579 1.58v3.16c0 .872.708 1.58 1.579 1.58h42.805a1.58 1.58 0 0 0 1.58-1.58v-3.16zM86.586 99.862a1.58 1.58 0 0 0 0-2.234l-24.009-24.01a1.583 1.583 0 0 0-2.235 0l-2.234 2.235a1.58 1.58 0 0 0 0 2.234l24.009 24.009a1.58 1.58 0 0 0 2.235 0l2.234-2.234z" fill="#fff"/><path d="M84.154 95.646a1.581 1.581 0 0 0-2.234 0l-24.009 24.01a1.58 1.58 0 0 0 0 2.234l2.234 2.234a1.58 1.58 0 0 0 2.235 0l24.009-24.009a1.581 1.581 0 0 0 0-2.234l-2.235-2.235z" fill="#fff"/></svg>