<svg viewBox="0 0 344 221" xmlns="http://www.w3.org/2000/svg" fill-rule="evenodd" clip-rule="evenodd" stroke-linejoin="round" stroke-miterlimit="1.414"><path fill="none" d="M0 0h343.931v220.339H0z"/><path fill="#a2ded0" d="M-9.41-1.718h362.532v223.799H-9.41z"/><g fill-rule="nonzero"><path d="M176.302 104.324l.563.563-.563-.562v-.001z" fill="#d1dceb"/><path d="M201.415 117.192l-18.99-18.99-.002-.002c-4.299-4.298-10.58-5.684-16.147-3.903a15.847 15.847 0 0 0-4.015 1.94 4.33 4.33 0 0 0 4.832 7.186c2.879-1.936 6.751-1.556 9.209.901l.564.563 18.427 18.428a7.24 7.24 0 0 1 2.134 5.153 7.243 7.243 0 0 1-2.134 5.153 7.24 7.24 0 0 1-5.154 2.135 7.236 7.236 0 0 1-5.152-2.135l-7.554-7.554a15.945 15.945 0 0 1-16.153-3.907l-1.408-1.408 18.992 18.992a15.838 15.838 0 0 0 11.275 4.67 15.84 15.84 0 0 0 11.276-4.67 15.843 15.843 0 0 0 4.671-11.276c0-4.26-1.659-8.264-4.671-11.276z" fill="#4ec9dc"/><path d="M182.684 118.025a4.329 4.329 0 0 0-6.018-1.123 7.283 7.283 0 0 1-9.263-.864l-18.99-18.99c-2.842-2.842-2.842-7.466 0-10.307a7.24 7.24 0 0 1 5.153-2.134 7.24 7.24 0 0 1 5.153 2.134l7.557 7.556c5.567-1.781 11.847-.395 16.147 3.903l-17.582-17.581a15.838 15.838 0 0 0-11.275-4.671c-4.26 0-8.264 1.659-11.276 4.671-6.218 6.217-6.218 16.334 0 22.551l18.99 18.99a15.933 15.933 0 0 0 16.152 3.907 15.89 15.89 0 0 0 4.13-2.023 4.329 4.329 0 0 0 1.122-6.019z" fill="#d1dceb"/></g></svg>