<svg viewBox="0 0 344 221" xmlns="http://www.w3.org/2000/svg" fill-rule="evenodd" clip-rule="evenodd" stroke-linejoin="round" stroke-miterlimit="1.414"><path fill="none" d="M-.097.352h343.931v220.339H-.097z"/><path fill="#ffdc90" d="M0 0h344v221H0z"/><path d="M137.717 122.719s-5.621-8.546-5.48-12.353c.142-3.807 3.14-7.054 2.905-9.112-.235-2.058-.526-4.111 0-6.403.526-2.291 9.295-16.391 16.626-19.391 7.33-3 16.311-6.842 27.523-4.907 7.301 1.26 9.572 4.618 12.593 5.437 3.022.82 11.812 9.54 14.301 14.718 2.489 5.179 2.493 12.97 2.848 14.729.355 1.759 1.413 4.83 1.254 6.022-.159 1.192-2.143 10.695-2.143 10.695l-70.427.565" fill="#7e4e20"/><path d="M139.726 121.798a34.111 34.111 0 0 1-.314-4.626c0-18.652 15.143-33.796 33.796-33.796s33.796 15.144 33.796 33.796c0 1.544-.103 3.063-.304 4.552a6.065 6.065 0 0 1 5.065 5.979 6.063 6.063 0 0 1-8.762 5.425c-5.702 10.616-16.911 17.841-29.795 17.841-12.82 0-23.982-7.153-29.709-17.683a6.064 6.064 0 0 1-8.357-5.609 6.066 6.066 0 0 1 4.584-5.879z" fill="#f1c0a2"/><circle cx="157.879" cy="110.627" r="12.093" fill="#fff"/><circle cx="187.941" cy="110.033" r="12.093" fill="#fff"/></svg>