<svg viewBox="0 0 344 221" xmlns="http://www.w3.org/2000/svg" fill-rule="evenodd" clip-rule="evenodd" stroke-linecap="round" stroke-linejoin="round" stroke-miterlimit="1.5"><path fill="none" d="M0 0h343.931v220.339H0z"/><path fill="#ffdc90" d="M-.396-.125h344.73v221.634H-.396z"/><path fill="none" stroke="#424242" stroke-width="2.5" d="M132.925 153.516h13.505v2.47h-13.505zm63.3 0h13.505v2.47h-13.505z"/><path d="M131.748 69.771l5.816 14.798 32.079-19.171" fill="none" stroke="#424242" stroke-width="3"/><path d="M224.025 88.012a2.75 2.75 0 0 0-2.749-2.75h-98.613a2.751 2.751 0 0 0-2.75 2.75v63.233a2.751 2.751 0 0 0 2.75 2.75h98.613a2.75 2.75 0 0 0 2.749-2.75V88.012z" fill="#82bbc2" stroke="#424242" stroke-width="3"/><path d="M195.154 88.012a2.75 2.75 0 0 0-2.749-2.75h-69.742a2.751 2.751 0 0 0-2.75 2.75v63.233a2.751 2.751 0 0 0 2.75 2.75h69.742a2.75 2.75 0 0 0 2.749-2.75V88.012z" fill="#74e1ff" stroke="#424242" stroke-width="3"/><path d="M207.434 117.114h5.176m-5.176-8.733h5.176m-5.07-8.332h5.176" fill="none" stroke="#424242" stroke-width="4"/><circle cx="210.087" cy="135.647" r="6.69" fill="#f1c40f" stroke="#424242" stroke-width="2.5"/><path d="M148.559 120.243l9.969-9.969m-12.81 20.811l23.652-23.652m-12.811 20.81l9.969-9.969" fill="none" stroke="#fff" stroke-width="2"/></svg>