<svg viewBox="0 0 344 221" xmlns="http://www.w3.org/2000/svg" fill-rule="evenodd" clip-rule="evenodd" stroke-linecap="round" stroke-linejoin="round" stroke-miterlimit="1.5"><path fill="#dcc6e0" d="M0 0h344v221H0z"/><path fill="none" d="M0 0h343.931v220.339H0z"/><path fill="#dcc6e0" d="M0 0h344v221H0z"/><path fill="none" d="M0 0h343.931v220.339H0z"/><path fill="#dcc6e0" d="M0 0h344v221H0z"/><path fill="none" d="M0 0h343.931v220.339H0z"/><path fill="#dcc6e0" d="M0 0h344v221H0z"/><path fill="none" d="M0 0h343.931v220.339H0z"/><path fill="#dcc6e0" d="M.779 0h344v221h-344z"/><path d="M176.21 142.932a3.783 3.783 0 0 0-3.78-3.782h-.86a3.781 3.781 0 0 0 0 7.56l.86.001a3.781 3.781 0 0 0 3.78-3.78z" fill="#9d9d9d"/><path d="M182.066 133.91a5.815 5.815 0 0 0-5.812-5.815h-8.508a5.815 5.815 0 0 0-5.812 5.814v5.58a5.814 5.814 0 0 0 5.812 5.809h8.508a5.814 5.814 0 0 0 5.812-5.81v-5.579z" fill="#a9a9a9"/><path d="M147.109 101.722a25.25 25.25 0 0 1-.116-2.426c0-13.802 11.205-25.007 25.007-25.007 13.802 0 25.007 11.205 25.007 25.007 0 .17-.001.34-.005.509v.384c.157 16.237-15.033 26.64-15.002 34.095.001.309-19.991.272-20 0-.244-7.548-13.496-16.233-14.891-32.562z" fill="#ffdc90"/><path d="M167.952 134.471s1.263-25.064 0-30.076c-.617-2.449-6.314-1.397-7.577 0-1.263 1.396-2.628 7.432 0 8.38 3.875 1.396 19.375 1.396 23.25 0 2.628-.948 1.22-6.984 0-8.38-1.221-1.397-6.748-2.373-7.325 0-1.221 5.017 0 30.106 0 30.106" fill="none" stroke="#dcbb74" stroke-opacity=".529" stroke-width="2.5"/><path d="M183.625 134.965c0-1.13-.917-2.048-2.047-2.048h-19.156a2.049 2.049 0 0 0 0 4.095h19.156c1.13 0 2.047-.917 2.047-2.047z" fill="#9d9d9d"/><path fill="none" d="M0 0h343.931v220.339H0z"/></svg>